<?xml version="1.0" encoding="UTF-8"?>
<svg version="1.1" xmlns="http://www.w3.org/2000/svg" width="500" height="500">
<path d="M0 0 C165 0 330 0 500 0 C500 165 500 330 500 500 C335 500 170 500 0 500 C0 335 0 170 0 0 Z " fill="#7B1818" transform="translate(0,0)"/>
<path d="M0 0 C4.35734562 1.68195809 7.2440535 4.92031826 10.48828125 8.15234375 C11.42041695 9.07449425 11.42041695 9.07449425 12.37138367 10.01527405 C13.68601538 11.31978822 14.99795107 12.62702415 16.30737305 13.93676758 C18.28470052 15.90976145 20.27739495 17.86623417 22.27148438 19.82226562 C34.9201307 32.35907037 41.39367611 41.44535343 41.5234375 59.66601562 C41.37023797 68.80874469 39.80972375 74.72395974 34 82 C33.39800781 82.77214844 32.79601562 83.54429687 32.17578125 84.33984375 C26.51354383 90.71431229 18.25480315 95.61566809 9.75 96.875 C8.8425 96.91625 7.935 96.9575 7 97 C7 95.68 7 94.36 7 93 C7.845625 92.70867187 8.69125 92.41734375 9.5625 92.1171875 C21.56493862 87.77994264 28.21492323 83.53410944 34 72 C34.51240234 71.01 34.51240234 71.01 35.03515625 70 C38.59949055 62.04241645 37.95295368 52.56996103 35.0390625 44.49633789 C30.79332778 34.29600013 22.36270458 27.00961978 14.625 19.4375 C13.39904104 18.22661829 12.17377468 17.01503494 10.94921875 15.80273438 C7.97406802 12.86034056 4.98970966 9.92759658 2 7 C-2.07087445 8.62749673 -4.85110779 11.52792598 -7.90234375 14.56640625 C-8.74171227 15.39578957 -8.74171227 15.39578957 -9.59803772 16.2419281 C-10.7798217 17.4136023 -11.95891896 18.5879918 -13.13549805 19.76489258 C-14.91754164 21.54259031 -16.71491001 23.30369501 -18.51367188 25.06445312 C-28.15988282 34.61429049 -34.82448817 43.30807945 -35.25 57.375 C-35.13736533 62.67821573 -34.08404465 67.82175101 -33 73 C-32.34 73 -31.68 73 -31 73 C-29.73828125 74.7578125 -29.73828125 74.7578125 -28.3125 77.125 C-22.76134933 85.64568187 -15.83904691 90.34013064 -5.8046875 92.46484375 C-4.21053288 92.70041721 -2.60540818 92.86039929 -1 93 C-1 89.04 -1 85.08 -1 81 C-1.99 81 -2.98 81 -4 81 C-4 82.98 -4 84.96 -4 87 C-11.36670715 85.85756948 -17.81597144 81.98278745 -22.4375 76.125 C-23.33130504 74.77543035 -24.18854479 73.40063062 -25 72 C-25.33902344 71.41863281 -25.67804688 70.83726562 -26.02734375 70.23828125 C-29.32857201 63.22507282 -29.00995671 54.22265903 -27.56640625 46.7578125 C-24.38047465 38.16964907 -15.0768185 30.81543351 -8.8125 24.4375 C-8.01908203 23.60669922 -7.22566406 22.77589844 -6.40820312 21.91992188 C-5.64056641 21.14068359 -4.87292969 20.36144531 -4.08203125 19.55859375 C-3.39343018 18.85017334 -2.7048291 18.14175293 -1.99536133 17.41186523 C0 16 0 16 2.109375 16.15234375 C4.9301631 17.41703593 6.66862711 19.35110355 8.8125 21.5625 C9.69164062 22.46871094 10.57078125 23.37492187 11.4765625 24.30859375 C14.16516704 27.17616113 16.79516769 30.07445274 19.33984375 33.0703125 C20.48825067 34.40516666 21.67073469 35.711174 22.87890625 36.9921875 C29.56557223 44.16744077 31.63285245 50.18510001 31.34765625 60.04296875 C30.35127124 68.51783902 25.28954364 76.38815805 18.82421875 81.83203125 C14.54524332 84.90282538 11.45447003 86.83914923 6 86 C5.67 85.01 5.34 84.02 5 83 C4.67 90.92 4.34 98.84 4 107 C8.95 107 13.9 107 19 107 C19 108.65 19 110.3 19 112 C14.05 112 9.1 112 4 112 C4.33 121.9 4.66 131.8 5 142 C5.99 142 6.98 142 8 142 C8.66 139.03 9.32 136.06 10 133 C12 134 14 135 16 136 C15.42562214 139.87705056 13.57271945 142.11543577 11 145 C8.11138291 146.44430855 6.20352299 146.37688506 3 146 C-0.29476026 143.41175498 -1.83279929 141.95135403 -2.56762695 137.77026367 C-2.54144287 136.58150635 -2.51525879 135.39274902 -2.48828125 134.16796875 C-2.47216797 132.87568359 -2.45605469 131.58339844 -2.43945312 130.25195312 C-2.39768274 128.89711843 -2.35535809 127.54230072 -2.3125 126.1875 C-2.28740069 124.81319134 -2.26459036 123.43883884 -2.24414062 122.06445312 C-2.18526461 118.70852024 -2.1030642 115.3548191 -2 112 C-3.65 112 -5.3 112 -7 112 C-7 110.68 -7 109.36 -7 108 C-4.525 107.505 -4.525 107.505 -2 107 C-2 104.03 -2 101.06 -2 98 C-3.0621875 97.78085937 -4.124375 97.56171875 -5.21875 97.3359375 C-17.51785059 94.64255518 -25.44135161 90.48762464 -33 80 C-33 79.34 -33 78.68 -33 78 C-33.66 78 -34.32 78 -35 78 C-39.97364471 66.47624285 -41.32129869 52.70832717 -37.16381836 40.6340332 C-32.44166141 29.94652506 -21.70033543 21.46558347 -13.5 13.375 C-12.18703159 12.07208644 -10.87452803 10.76870427 -9.5625 9.46484375 C-6.380327 6.30447418 -3.19195274 3.15049053 0 0 Z " fill="#D99E49" transform="translate(397,159)"/>
<path d="M0 0 C5.28 0 10.56 0 16 0 C16 18.15 16 36.3 16 55 C10.39 55 4.78 55 -1 55 C-1 54.01 -1 53.02 -1 52 C-1.804375 52.495 -2.60875 52.99 -3.4375 53.5 C-7.81447106 55.34293518 -11.31500882 55.64949046 -16 55 C-19.22265194 53.52878933 -21.73692677 51.7395097 -24 49 C-24 48.34 -24 47.68 -24 47 C-24.66 47 -25.32 47 -26 47 C-29.71959943 38.94086789 -30.26852051 30.81966244 -28 22.1875 C-26.09345619 17.15532427 -22.38291861 13.9690739 -18 11 C-15.27182878 10.09060959 -13.45290223 9.80790926 -10.625 9.75 C-9.87476563 9.72421875 -9.12453125 9.6984375 -8.3515625 9.671875 C-5.37270958 10.0875289 -3.47435222 11.33877413 -1 13 C-1.01160156 12.14535156 -1.02320313 11.29070312 -1.03515625 10.41015625 C-1.04417969 9.30542969 -1.05320313 8.20070312 -1.0625 7.0625 C-1.07410156 5.96035156 -1.08570313 4.85820312 -1.09765625 3.72265625 C-1 1 -1 1 0 0 Z " fill="#D99940" transform="translate(174,199)"/>
<path d="M0 0 C2.8207881 1.26469218 4.55925211 3.1987598 6.703125 5.41015625 C7.58226562 6.31636719 8.46140625 7.22257813 9.3671875 8.15625 C12.05579204 11.02381738 14.68579269 13.92210899 17.23046875 16.91796875 C18.37887567 18.25282291 19.56135969 19.55883025 20.76953125 20.83984375 C27.45619723 28.01509702 29.52347745 34.03275626 29.23828125 43.890625 C28.24189624 52.36549527 23.18016864 60.2358143 16.71484375 65.6796875 C12.43586832 68.75048163 9.34509503 70.68680548 3.890625 69.84765625 C3.560625 68.85765625 3.230625 67.86765625 2.890625 66.84765625 C2.560625 74.76765625 2.230625 82.68765625 1.890625 90.84765625 C1.560625 90.84765625 1.230625 90.84765625 0.890625 90.84765625 C0.65706569 86.6611056 0.51579863 82.47623751 0.390625 78.28515625 C0.32359375 77.10373047 0.2565625 75.92230469 0.1875 74.70507812 C-0.00666576 66.04043103 -0.00666576 66.04043103 2.58837891 62.59082031 C4.6110431 60.85152453 6.68677747 59.34654465 8.890625 57.84765625 C13.97199666 52.17770872 17.42998208 46.83148276 17.20703125 38.96875 C16.24881994 32.54518527 12.96913169 28.62701007 7.890625 24.84765625 C6.08900301 22.75387934 4.34916648 20.62428612 2.63671875 18.45703125 C0.79619372 16.39583402 0.79619372 16.39583402 -3.109375 16.84765625 C-5.30908122 18.7293678 -7.25378768 20.57114262 -9.234375 22.66015625 C-9.77191406 23.20736328 -10.30945313 23.75457031 -10.86328125 24.31835938 C-15.16978906 28.74837052 -17.42379493 31.6774356 -18.109375 37.84765625 C-18.18671875 38.54375 -18.2640625 39.23984375 -18.34375 39.95703125 C-18.73460657 46.25416482 -17.10411588 50.0320782 -13.109375 54.84765625 C-10.2061008 57.95483934 -7.20571054 60.93345809 -4.109375 63.84765625 C-5.099375 64.34265625 -5.099375 64.34265625 -6.109375 64.84765625 C-6.109375 66.82765625 -6.109375 68.80765625 -6.109375 70.84765625 C-13.47608215 69.70522573 -19.92534644 65.8304437 -24.546875 59.97265625 C-25.44068004 58.6230866 -26.29791979 57.24828687 -27.109375 55.84765625 C-27.44839844 55.26628906 -27.78742188 54.68492187 -28.13671875 54.0859375 C-31.43794701 47.07272907 -31.11933171 38.07031528 -29.67578125 30.60546875 C-26.48984965 22.01730532 -17.1861935 14.66308976 -10.921875 8.28515625 C-10.12845703 7.45435547 -9.33503906 6.62355469 -8.51757812 5.76757812 C-7.74994141 4.98833984 -6.98230469 4.20910156 -6.19140625 3.40625 C-5.50280518 2.69782959 -4.8142041 1.98940918 -4.10473633 1.25952148 C-2.109375 -0.15234375 -2.109375 -0.15234375 0 0 Z " fill="#82221B" transform="translate(399.109375,175.15234375)"/>
<path d="M0 0 C25.41 0 50.82 0 77 0 C77 1.65 77 3.3 77 5 C74.03 5 71.06 5 68 5 C68.04452419 7.32891902 68.04452419 7.32891902 69 10 C70.010625 10.639375 71.02125 11.27875 72.0625 11.9375 C73.6953125 13.140625 73.6953125 13.140625 75 15 C75.64767569 20.06364628 76.33971153 26.32057694 74 31 C73.34 31 72.68 31 72 31 C71.62875 31.86625 71.62875 31.86625 71.25 32.75 C69.83316683 35.3002997 68.12372463 37.01785701 66 39 C63.50638429 37.79618552 61.31856917 36.54571278 59 35 C59 34.34 59 33.68 59 33 C59.61488281 32.69707031 60.22976563 32.39414062 60.86328125 32.08203125 C67.28259231 28.89092614 67.28259231 28.89092614 71 23 C71.32774557 18.84504291 71.32774557 18.84504291 70 15 C68.56344146 14.91868537 67.1255517 14.86066441 65.6875 14.8125 C64.88699219 14.77769531 64.08648437 14.74289062 63.26171875 14.70703125 C60.95832776 14.81871452 60.95832776 14.81871452 59.3125 16.25 C57.86498746 18.18001672 57.09654441 19.91003767 56.3125 22.1875 C56.06113281 22.90292969 55.80976563 23.61835938 55.55078125 24.35546875 C55.36902344 24.89816406 55.18726563 25.44085938 55 26 C50.125 25.125 50.125 25.125 49 24 C49.38859359 20.50265772 49.88596087 17.34211739 51 14 C47.41327507 14.27590192 44.68593503 14.59547422 41.5625 16.4375 C39.05308976 20.5529328 38.94710748 24.33330863 40 29 C41.9871825 32.34813131 44.32743707 35.1774463 47 38 C46.01 38.33 45.02 38.66 44 39 C39.10132562 35.9766882 34.56647065 31.1329413 32 26 C31.47294334 22.23530959 31.15102934 18.55699252 33.01171875 15.14453125 C35.09504674 12.61075397 37.27347116 10.81768589 40 9 C44.37019979 8.70371527 47.91816669 8.87554319 52.125 10.0625 C55.96395152 10.99127859 58.21721335 10.94569666 62 10 C62 8.35 62 6.7 62 5 C44.84 5 27.68 5 10 5 C10 6.65 10 8.3 10 10 C10.99 9.67 11.98 9.34 13 9 C15.3046875 8.7265625 15.3046875 8.7265625 17.875 8.625 C18.71804688 8.57601563 19.56109375 8.52703125 20.4296875 8.4765625 C24.49507403 9.30446796 25.67812032 10.53986314 28 14 C28.61095352 18.28731315 28.4697832 22.49326148 28.3125 26.8125 C28.28994141 27.98232422 28.26738281 29.15214844 28.24414062 30.35742188 C28.18532091 33.23958769 28.10317141 36.11913681 28 39 C25.08014819 38.31911019 22.64877696 37.41898766 20 36 C20 36.66 20 37.32 20 38 C16.11475038 39.29508321 12.04029339 39.60123414 8 39 C5.1899654 37.20636089 3.49059532 35.98119065 2 33 C1.64705882 26.52941176 1.64705882 26.52941176 4 23 C4.66 23 5.32 23 6 23 C6 22.34 6 21.68 6 21 C9.86193499 17.76095775 13.20221277 17.69987656 18.01171875 17.796875 C20 18 20 18 22 19 C21.34 17.68 20.68 16.36 20 15 C18.60427948 14.97263293 17.20839779 14.95344011 15.8125 14.9375 C14.64654297 14.92009766 14.64654297 14.92009766 13.45703125 14.90234375 C10.55270381 14.95337665 10.55270381 14.95337665 6 16 C6 12.37 6 8.74 6 5 C4.02 5 2.04 5 0 5 C0 3.35 0 1.7 0 0 Z " fill="#E9BF5D" transform="translate(247,266)"/>
<path d="M0 0 C3.36500107 1.65202045 6.27928289 3.55856577 8 7 C8.09898617 9.75984651 8.13983231 12.49391456 8.1328125 15.25390625 C8.13376923 16.06995834 8.13472595 16.88601044 8.13571167 17.72679138 C8.13639256 19.45254595 8.13454461 21.17830308 8.13037109 22.90405273 C8.12501468 25.55523383 8.13032267 28.20624603 8.13671875 30.85742188 C8.13605809 32.53125038 8.13477717 34.20507877 8.1328125 35.87890625 C8.13483673 36.67680069 8.13686096 37.47469513 8.13894653 38.29676819 C8.11495544 43.88504456 8.11495544 43.88504456 7 45 C4.48863896 45.09975032 2.01096585 45.13882183 -0.5 45.125 C-1.20253906 45.12886719 -1.90507813 45.13273437 -2.62890625 45.13671875 C-7.87338622 45.12661378 -7.87338622 45.12661378 -9 44 C-9.08861992 41.1883662 -9.11522355 38.40141745 -9.09765625 35.58984375 C-9.0962413 34.74780899 -9.09482635 33.90577423 -9.09336853 33.03822327 C-9.08775263 30.33794665 -9.07519748 27.63775172 -9.0625 24.9375 C-9.05748705 23.11132932 -9.05292379 21.28515734 -9.04882812 19.45898438 C-9.03777804 14.97262458 -9.02050279 10.48632616 -9 6 C-12.35433109 6.94933899 -15.69246505 7.89748835 -19 9 C-19 20.88 -19 32.76 -19 45 C-24.28 45 -29.56 45 -35 45 C-36 44 -36 44 -36.12025452 42.24729919 C-36.11803391 41.48562943 -36.11581329 40.72395966 -36.11352539 39.93920898 C-36.11344986 39.07839218 -36.11337433 38.21757538 -36.11329651 37.33067322 C-36.10813522 36.39526199 -36.10297394 35.45985077 -36.09765625 34.49609375 C-36.0962413 33.54307877 -36.09482635 32.59006378 -36.09336853 31.60816956 C-36.08775152 28.55124835 -36.07519616 25.49439923 -36.0625 22.4375 C-36.05748719 20.37044376 -36.05292391 18.30338638 -36.04882812 16.23632812 C-36.03777656 11.15752412 -36.02050055 6.0787743 -36 1 C-30.39 1 -24.78 1 -19 1 C-18.67 1.99 -18.34 2.98 -18 4 C-16.88625 3.34 -15.7725 2.68 -14.625 2 C-9.76064457 -0.40204454 -5.34534935 -1.03262431 0 0 Z " fill="#E6B757" transform="translate(129,209)"/>
<path d="M0 0 C3.77947172 1.75475473 5.48671249 2.80913348 7.1418457 6.64916992 C8.12322156 10.48114252 8.27020927 14.06371727 8.23046875 17.98828125 C8.23001053 18.73208542 8.22955231 19.47588959 8.2290802 20.24223328 C8.22607562 21.80286266 8.21824354 23.36348952 8.20581055 24.92407227 C8.18742307 27.32253515 8.185302 29.72061423 8.18554688 32.11914062 C8.18063593 33.6380242 8.17480946 35.15690514 8.16796875 36.67578125 C8.16685593 37.39550613 8.1657431 38.11523102 8.16459656 38.85676575 C8.11609488 43.88390512 8.11609488 43.88390512 7 45 C4.48863896 45.09975032 2.01096585 45.13882183 -0.5 45.125 C-1.20253906 45.12886719 -1.90507812 45.13273437 -2.62890625 45.13671875 C-7.87338622 45.12661378 -7.87338622 45.12661378 -9 44 C-9.08861992 41.1883662 -9.11522355 38.40141745 -9.09765625 35.58984375 C-9.0962413 34.74780899 -9.09482635 33.90577423 -9.09336853 33.03822327 C-9.08775263 30.33794665 -9.07519748 27.63775172 -9.0625 24.9375 C-9.05748705 23.11132932 -9.05292379 21.28515734 -9.04882812 19.45898438 C-9.03777804 14.97262458 -9.02050279 10.48632616 -9 6 C-12.35433109 6.94933899 -15.69246505 7.89748835 -19 9 C-19 20.88 -19 32.76 -19 45 C-24.28 45 -29.56 45 -35 45 C-36 44 -36 44 -36.12025452 42.24729919 C-36.11803391 41.48562943 -36.11581329 40.72395966 -36.11352539 39.93920898 C-36.11344986 39.07839218 -36.11337433 38.21757538 -36.11329651 37.33067322 C-36.10813522 36.39526199 -36.10297394 35.45985077 -36.09765625 34.49609375 C-36.0962413 33.54307877 -36.09482635 32.59006378 -36.09336853 31.60816956 C-36.08775152 28.55124835 -36.07519616 25.49439923 -36.0625 22.4375 C-36.05748719 20.37044376 -36.05292391 18.30338638 -36.04882812 16.23632812 C-36.03777656 11.15752412 -36.02050055 6.0787743 -36 1 C-30.39 1 -24.78 1 -19 1 C-18.67 1.99 -18.34 2.98 -18 4 C-17.4225 3.71125 -16.845 3.4225 -16.25 3.125 C-15.13625 2.568125 -15.13625 2.568125 -14 2 C-13.39414062 1.65453125 -12.78828125 1.3090625 -12.1640625 0.953125 C-8.23313844 -0.77818451 -4.20321637 -0.53037431 0 0 Z " fill="#E0A94C" transform="translate(316,209)"/>
<path d="M0 0 C0.82822266 0.00580078 1.65644531 0.01160156 2.50976562 0.01757812 C6.8584102 0.10462065 10.35904735 0.43259224 14.3125 2.4375 C14.3125 3.0975 14.3125 3.7575 14.3125 4.4375 C14.93125 4.72625 15.55 5.015 16.1875 5.3125 C18.3125 6.4375 18.3125 6.4375 20.3125 8.4375 C20.55819272 11.22966791 20.68613138 13.92990605 20.7265625 16.7265625 C20.74592865 17.54498627 20.7652948 18.36341003 20.7852478 19.20663452 C20.84511082 21.82514976 20.89145532 24.44370881 20.9375 27.0625 C20.97567364 28.83595686 21.01472501 30.60939505 21.0546875 32.3828125 C21.15081771 36.73422375 21.23482351 41.08572179 21.3125 45.4375 C18.41660348 45.46456445 15.52096205 45.48437029 12.625 45.5 C11.40006836 45.51256836 11.40006836 45.51256836 10.15039062 45.52539062 C6.02621729 45.54208768 2.36134102 45.27130585 -1.6875 44.4375 C-3.1725 44.9325 -3.1725 44.9325 -4.6875 45.4375 C-13.70108696 45.8736413 -13.70108696 45.8736413 -17.6875 43.4375 C-22.27381975 37.70460031 -22.50612392 33.11291617 -22.3515625 25.9609375 C-21.61411481 22.0481268 -20.95381247 20.90420566 -17.8125 18.5625 C-15.6328125 17.3203125 -15.6328125 17.3203125 -13.6875 16.4375 C-13.0275 16.1075 -12.3675 15.7775 -11.6875 15.4375 C-6.15617349 15.15624611 -1.92950843 15.69016386 3.3125 17.4375 C3.3125 13.4775 3.3125 9.5175 3.3125 5.4375 C-0.7381293 4.08729023 -4.45211089 3.88021196 -8.6875 4.4375 C-11.55779869 6.23143668 -13.17881638 7.42013276 -14.6875 10.4375 C-15.6775 10.4375 -16.6675 10.4375 -17.6875 10.4375 C-18.1875 8.25 -18.1875 8.25 -17.6875 5.4375 C-12.36490235 0.49897059 -6.99528614 -0.28157821 0 0 Z " fill="#F0CD68" transform="translate(249.6875,208.5625)"/>
<path d="M0 0 C6.6 0 13.2 0 20 0 C20 18.15 20 36.3 20 55 C13.73 55 7.46 55 1 55 C0 54 0 54 -0.12025452 51.82969666 C-0.11803391 50.87261307 -0.11581329 49.91552948 -0.11352539 48.92944336 C-0.11344986 47.84839828 -0.11337433 46.76735321 -0.11329651 45.65354919 C-0.10813522 44.4775264 -0.10297394 43.3015036 -0.09765625 42.08984375 C-0.0962413 40.89267227 -0.09482635 39.69550079 -0.09336853 38.46205139 C-0.08774979 34.62050934 -0.07519411 30.77902457 -0.0625 26.9375 C-0.05748741 24.34049563 -0.05292409 21.74349035 -0.04882812 19.14648438 C-0.03777427 12.76430068 -0.02049708 6.38216007 0 0 Z " fill="#DB9D42" transform="translate(62,199)"/>
<path d="M0 0 C4.35734562 1.68195809 7.2440535 4.92031826 10.48828125 8.15234375 C11.42041695 9.07449425 11.42041695 9.07449425 12.37138367 10.01527405 C13.68601538 11.31978822 14.99795107 12.62702415 16.30737305 13.93676758 C18.28470052 15.90976145 20.27739495 17.86623417 22.27148438 19.82226562 C34.9201307 32.35907037 41.39367611 41.44535343 41.5234375 59.66601562 C41.37023797 68.80874469 39.80972375 74.72395974 34 82 C33.39800781 82.77214844 32.79601562 83.54429687 32.17578125 84.33984375 C26.51354383 90.71431229 18.25480315 95.61566809 9.75 96.875 C8.8425 96.91625 7.935 96.9575 7 97 C7 95.68 7 94.36 7 93 C7.845625 92.70867187 8.69125 92.41734375 9.5625 92.1171875 C21.56493862 87.77994264 28.21492323 83.53410944 34 72 C34.51240234 71.01 34.51240234 71.01 35.03515625 70 C38.59949055 62.04241645 37.95295368 52.56996103 35.0390625 44.49633789 C30.79332778 34.29600013 22.36270458 27.00961978 14.625 19.4375 C13.39904104 18.22661829 12.17377468 17.01503494 10.94921875 15.80273438 C7.97406802 12.86034056 4.98970966 9.92759658 2 7 C-2.07087445 8.62749673 -4.85110779 11.52792598 -7.90234375 14.56640625 C-8.74171227 15.39578957 -8.74171227 15.39578957 -9.59803772 16.2419281 C-10.7798217 17.4136023 -11.95891896 18.5879918 -13.13549805 19.76489258 C-14.91754164 21.54259031 -16.71491001 23.30369501 -18.51367188 25.06445312 C-28.15988282 34.61429049 -34.82448817 43.30807945 -35.25 57.375 C-35.13736533 62.67821573 -34.08404465 67.82175101 -33 73 C-32.34 73 -31.68 73 -31 73 C-29.73828125 74.7578125 -29.73828125 74.7578125 -28.3125 77.125 C-21.91654882 86.88724128 -13.50660728 91.13129786 -2.1015625 93.63671875 C-1.40804687 93.75660156 -0.71453125 93.87648438 0 94 C0 91.69 0 89.38 0 87 C0.66 86.67 1.32 86.34 2 86 C2 89.63 2 93.26 2 97 C-8.00311789 97.42870505 -16.16460325 96.20687027 -24.10546875 89.75390625 C-27.34321488 86.75648767 -30.41646309 83.58465746 -33 80 C-33 79.34 -33 78.68 -33 78 C-33.66 78 -34.32 78 -35 78 C-39.97364471 66.47624285 -41.32129869 52.70832717 -37.16381836 40.6340332 C-32.44166141 29.94652506 -21.70033543 21.46558347 -13.5 13.375 C-12.18703159 12.07208644 -10.87452803 10.76870427 -9.5625 9.46484375 C-6.380327 6.30447418 -3.19195274 3.15049053 0 0 Z " fill="#CE913B" transform="translate(397,159)"/>
<path d="M0 0 C20.13 0 40.26 0 61 0 C61 1.65 61 3.3 61 5 C54.73 5 48.46 5 42 5 C42 6.32 42 7.64 42 9 C42.72445312 8.94199219 43.44890625 8.88398438 44.1953125 8.82421875 C45.64550781 8.75654297 45.64550781 8.75654297 47.125 8.6875 C48.55199219 8.60048828 48.55199219 8.60048828 50.0078125 8.51171875 C53.21187948 9.03457563 55.42506668 9.87644923 57.84423828 12.09448242 C60.47501205 16.43186925 59.58862017 21.92388467 59.375 26.8125 C59.33439453 28.56723633 59.33439453 28.56723633 59.29296875 30.35742188 C59.22237105 33.24016135 59.12380574 36.11913571 59 39 C57.32744141 38.47792969 57.32744141 38.47792969 55.62109375 37.9453125 C51.53013879 36.87733936 51.42536298 37.13162019 48 39 C43.23903195 39.5463406 40.14625587 39.49784583 36 37 C33.16195611 34.67975165 32.98673962 33.94519045 32.0625 30.125 C32.37785385 26.26008193 34.03438027 24.59153438 36.875 22.0625 C41.62876055 18.32253427 44.9355463 17.59170015 51 18 C51.99 18.33 52.98 18.66 54 19 C53.34 17.68 52.68 16.36 52 15 C50.1128125 14.938125 50.1128125 14.938125 48.1875 14.875 C47.47980469 14.85179687 46.77210938 14.82859375 46.04296875 14.8046875 C43.68640281 14.86745538 43.68640281 14.86745538 41 17 C39.35 17 37.7 17 36 17 C36.33 13.04 36.66 9.08 37 5 C24.79 5 12.58 5 0 5 C0 3.35 0 1.7 0 0 Z " fill="#CD8130" transform="translate(326,266)"/>
<path d="M0 0 C5.12796278 1.38882325 8.6551911 4.64911176 11.4375 9.125 C12.47973902 14.10458645 12.82480335 18.79631402 10.875 23.5625 C8.421966 26.5061408 6.22275585 28.70531349 3 30.8125 C-0.5 31 -0.5 31 -4 29.8125 C-5.98 27.8325 -7.96 25.8525 -10 23.8125 C-10.33 33.0525 -10.66 42.2925 -11 51.8125 C-12.65 51.1525 -14.3 50.4925 -16 49.8125 C-16 33.9725 -16 18.1325 -16 1.8125 C-14.35 1.8125 -12.7 1.8125 -11 1.8125 C-10.67 3.7925 -10.34 5.7725 -10 7.8125 C-9.56429687 7.3071875 -9.12859375 6.801875 -8.6796875 6.28125 C-3.88683603 1.05268476 -3.88683603 1.05268476 0 0 Z " fill="#CE8332" transform="translate(83,274.1875)"/>
<path d="M0 0 C4.18688533 0.76417079 6.39454101 2.64786444 9.546875 5.46484375 C11.1551414 8.68137654 10.68867185 12.18635904 10.6796875 15.71875 C10.68112259 16.94282814 10.68112259 16.94282814 10.68258667 18.19163513 C10.68326756 19.9173897 10.68141961 21.64314683 10.67724609 23.36889648 C10.67188968 26.02007758 10.67719767 28.67108978 10.68359375 31.32226562 C10.68293309 32.99609413 10.68165217 34.66992252 10.6796875 36.34375 C10.68171173 37.14164444 10.68373596 37.93953888 10.68582153 38.76161194 C10.66183044 44.34988831 10.66183044 44.34988831 9.546875 45.46484375 C7.03551396 45.56459407 4.55784085 45.60366558 2.046875 45.58984375 C1.34433594 45.59371094 0.64179687 45.59757812 -0.08203125 45.6015625 C-5.32651122 45.59145753 -5.32651122 45.59145753 -6.453125 44.46484375 C-6.61329666 41.65507857 -6.71263034 38.86710779 -6.76953125 36.0546875 C-6.8007029 34.79163536 -6.8007029 34.79163536 -6.83250427 33.50306702 C-6.89809312 30.80291196 -6.95692776 28.10265658 -7.015625 25.40234375 C-7.05880137 23.57616134 -7.10241536 21.74998921 -7.14648438 19.92382812 C-7.25378394 15.43760383 -7.35502466 10.95127825 -7.453125 6.46484375 C-8.773125 5.80484375 -10.093125 5.14484375 -11.453125 4.46484375 C-8.34484691 -0.05628802 -5.12277088 -0.18945159 0 0 Z " fill="#F0CD68" transform="translate(126.453125,208.53515625)"/>
<path d="M0 0 C9.9 0 19.8 0 30 0 C30 1.65 30 3.3 30 5 C23.73 5 17.46 5 11 5 C11 6.32 11 7.64 11 9 C11.80824219 8.95359375 12.61648437 8.9071875 13.44921875 8.859375 C14.51785156 8.82328125 15.58648437 8.7871875 16.6875 8.75 C18.27111328 8.68039062 18.27111328 8.68039062 19.88671875 8.609375 C23.81124854 9.10178777 25.23131361 10.20816406 28 13 C28.56762695 15.84082031 28.56762695 15.84082031 28.48828125 19.078125 C28.47216797 20.23828125 28.45605469 21.3984375 28.43945312 22.59375 C28.39755859 23.8003125 28.35566406 25.006875 28.3125 26.25 C28.28994141 27.47203125 28.26738281 28.6940625 28.24414062 29.953125 C28.18521758 32.96998502 28.10299265 35.98437515 28 39 C26.32744141 38.47792969 26.32744141 38.47792969 24.62109375 37.9453125 C20.53013879 36.87733936 20.42536298 37.13162019 17 39 C12.39727783 39.51966218 9.37017295 39.72673512 5.5625 36.9375 C3 34 3 34 1.75 30.625 C2.05500343 26.20245033 3.33771554 24.65116206 6.26171875 21.48046875 C10.76293845 17.64684568 14.29042953 17.72811569 20 18 C20.99 18.33 21.98 18.66 23 19 C22.34 17.68 21.68 16.36 21 15 C19.60427948 14.97263293 18.20839779 14.95344011 16.8125 14.9375 C15.64654297 14.92009766 15.64654297 14.92009766 14.45703125 14.90234375 C11.55270381 14.95337665 11.55270381 14.95337665 7 16 C7 12.37 7 8.74 7 5 C5.02 5 3.04 5 1 5 C0.67 3.35 0.34 1.7 0 0 Z " fill="#EAC260" transform="translate(130,266)"/>
<path d="M0 0 C5.61 0 11.22 0 17 0 C17 14.52 17 29.04 17 44 C11.39 44 5.78 44 0 44 C0 29.48 0 14.96 0 0 Z " fill="#D8973F" transform="translate(201,210)"/>
<path d="M0 0 C9.9 0 19.8 0 30 0 C30 1.65 30 3.3 30 5 C23.4 5 16.8 5 10 5 C10 6.65 10 8.3 10 10 C10.99 9.67 11.98 9.34 13 9 C14.66267874 8.85779721 16.3315173 8.77979433 18 8.75 C19.299375 8.71132813 19.299375 8.71132813 20.625 8.671875 C23 9 23 9 24.75 10.328125 C27.14740372 13.53465247 27.11893921 16.47200317 27.09765625 20.32421875 C27.09443359 21.35224609 27.09121094 22.38027344 27.08789062 23.43945312 C27.07951172 24.51130859 27.07113281 25.58316406 27.0625 26.6875 C27.05798828 27.77095703 27.05347656 28.85441406 27.04882812 29.97070312 C27.03703743 32.64719085 27.02058063 35.32356777 27 38 C26.0925 37.79375 25.185 37.5875 24.25 37.375 C20.74635669 36.97073346 19.93482759 37.32467747 17 39 C12.38513192 39.7099797 8.99928034 39.62455021 5 37.125 C2.43281899 34.39737017 2.05186519 33.4581425 1.625 29.6875 C2.09845804 25.03182929 3.44129069 23.91167125 7 21 C7.5775 20.401875 8.155 19.80375 8.75 19.1875 C12.29843787 17.31471335 16.06919924 17.44259363 20 18 C20.99 18.66 21.98 19.32 23 20 C22.15602694 17.33749166 22.15602694 17.33749166 20 15 C15.20675765 14.13185977 10.72929355 15.05414129 6 16 C6 12.37 6 8.74 6 5 C4.02 5 2.04 5 0 5 C0 3.35 0 1.7 0 0 Z " fill="#DBA148" transform="translate(99,266)"/>
<path d="M0 0 C4.95 0 9.9 0 15 0 C17.25 4.5 17.25 4.5 17.13525391 8.03417969 C17.11508209 8.81468689 17.09491028 9.59519409 17.0741272 10.39935303 C17.02583267 11.6480014 17.02583267 11.6480014 16.9765625 12.921875 C16.95153656 13.78186096 16.92651062 14.64184692 16.90072632 15.52789307 C16.81869155 18.26900622 16.72203857 21.009381 16.625 23.75 C16.56674352 25.61064713 16.50944061 27.47132437 16.453125 29.33203125 C16.31313739 33.88844391 16.16003956 38.44424935 16 43 C10.72 43 5.44 43 0 43 C0 28.81 0 14.62 0 0 Z " fill="#F1CC65" transform="translate(281,211)"/>
<path d="M0 0 C2.8207881 1.26469218 4.55925211 3.1987598 6.703125 5.41015625 C7.58226562 6.31636719 8.46140625 7.22257813 9.3671875 8.15625 C12.05579204 11.02381738 14.68579269 13.92210899 17.23046875 16.91796875 C18.37887567 18.25282291 19.56135969 19.55883025 20.76953125 20.83984375 C27.45619723 28.01509702 29.52347745 34.03275626 29.23828125 43.890625 C28.24323075 52.35414439 23.1856109 60.28873684 16.6796875 65.6796875 C12.56347725 68.599325 10.05548501 70.21073955 4.890625 69.84765625 C5.09765625 67.4921875 5.09765625 67.4921875 5.890625 64.84765625 C7.96484375 63.546875 7.96484375 63.546875 10.578125 62.53515625 C17.1510485 59.5448992 20.20331179 55.37567478 23.265625 48.97265625 C24.91277205 40.73692101 24.27849252 34.08204405 19.890625 26.84765625 C15.84405161 21.00154786 11.05092561 15.78516425 6.140625 10.66015625 C5.23828125 9.71785156 4.3359375 8.77554688 3.40625 7.8046875 C1.15718686 5.58930411 1.15718686 5.58930411 -1.08911133 6.05249023 C-4.53591942 7.40913724 -6.65665687 10.37024131 -9.046875 13.09765625 C-10.07583868 14.24957785 -11.10577544 15.40063103 -12.13671875 16.55078125 C-12.63445801 17.10975098 -13.13219727 17.6687207 -13.64501953 18.24462891 C-15.00153382 19.7296027 -16.42241462 21.15507659 -17.84765625 22.57421875 C-23.28164603 28.03636392 -25.26786075 32.82382997 -25.484375 40.41015625 C-25.42135872 48.03512645 -23.76238534 53.69285877 -18.6875 59.46484375 C-15.25361801 62.58487632 -11.38074854 64.22453431 -7.109375 65.84765625 C-7.109375 67.16765625 -7.109375 68.48765625 -7.109375 69.84765625 C-13.98783463 68.83611807 -18.48390471 65.96001815 -23.109375 60.84765625 C-23.810625 60.08453125 -24.511875 59.32140625 -25.234375 58.53515625 C-30.85804163 50.47456742 -30.87090256 42.43646801 -30.109375 32.84765625 C-28.24511257 23.20723613 -17.49982448 14.98240901 -10.921875 8.28515625 C-10.12845703 7.45435547 -9.33503906 6.62355469 -8.51757812 5.76757812 C-7.74994141 4.98833984 -6.98230469 4.20910156 -6.19140625 3.40625 C-5.50280518 2.69782959 -4.8142041 1.98940918 -4.10473633 1.25952148 C-2.109375 -0.15234375 -2.109375 -0.15234375 0 0 Z " fill="#DAA048" transform="translate(399.109375,175.15234375)"/>
<path d="M0 0 C9.9 0 19.8 0 30 0 C30 1.65 30 3.3 30 5 C29.01 5 28.02 5 27 5 C27 8.96 27 12.92 27 17 C25.35 16.67 23.7 16.34 22 16 C20.16909256 15.88688359 18.33435313 15.82538169 16.5 15.8125 C15.5821875 15.79832031 14.664375 15.78414063 13.71875 15.76953125 C10.80447367 16.01657479 8.64641203 16.78706115 6 18 C6 19.65 6 21.3 6 23 C6.56847656 22.7834375 7.13695312 22.566875 7.72265625 22.34375 C12.60801969 20.58208305 16.74416409 19.30583299 22 20 C24.60847629 21.49745861 26.87028902 22.87028902 29 25 C29.5 28.1875 29.5 28.1875 29 32 C26.99242427 34.47583066 24.7519357 36.39126671 22 38 C21.01 38 20.02 38 19 38 C20.74961797 41.12639768 20.74961797 41.12639768 23.625 42.4375 C24.40875 42.953125 25.1925 43.46875 26 44 C26 45.32 26 46.64 26 48 C20.25 48.125 20.25 48.125 18 47 C16.6250851 44.09740189 16 42.23861295 16 39 C14.7625 39.061875 13.525 39.12375 12.25 39.1875 C9.48918959 39.17281484 8.06057384 39.02725823 5.5 37.875 C3.39294868 35.24118585 3.70898778 33.27388743 4 30 C7.15252583 29.7297835 8.60229416 29.72381539 11.25 31.5625 C15.21283817 33.63398359 18.72974913 33.06356436 23 32 C23.99 31.34 24.98 30.68 26 30 C26 29.01 26 28.02 26 27 C24.0509375 27.2475 24.0509375 27.2475 22.0625 27.5 C20.37590372 27.67557627 18.6883222 27.84187919 17 28 C16.18789062 28.07992188 15.37578125 28.15984375 14.5390625 28.2421875 C12.25422414 28.37123153 10.25180301 28.41516208 8 28 C4.67438572 24.84066643 3.15962333 22.20857664 2.5625 17.6875 C3 14 3 14 5.3125 11.0625 C9.67298776 7.88080438 14.85478304 8.43459154 20 9 C20.99 9.33 21.98 9.66 23 10 C23 8.35 23 6.7 23 5 C15.41 5 7.82 5 0 5 C0 3.35 0 1.7 0 0 Z " fill="#D08835" transform="translate(215,266)"/>
<path d="M0 0 C1.2375 0.495 1.2375 0.495 2.5 1 C2.17 1.99 1.84 2.98 1.5 4 C2.16 4 2.82 4 3.5 4 C3.5 25 3.5 25 2.5 28 C-11.92857143 30.4047619 -11.92857143 30.4047619 -17.5 27 C-22.08631975 21.26710031 -22.31862392 16.67541617 -22.1640625 9.5234375 C-21.42661481 5.6106268 -20.76631247 4.46670566 -17.625 2.125 C-15.4453125 0.8828125 -15.4453125 0.8828125 -13.5 0 C-9.2617491 -2.11912545 -4.38187654 -1.25196473 0 0 Z " fill="#E5B252" transform="translate(249.5,225)"/>
<path d="M0 0 C0 12.87 0 25.74 0 39 C1.65 39.66 3.3 40.32 5 41 C4.67 41.66 4.34 42.32 4 43 C-2.73767887 43.39633405 -6.56038501 42.96518533 -11.8125 38.4375 C-13 37 -13 37 -13 35 C-13.66 35 -14.32 35 -15 35 C-18.73357203 26.91059393 -19.32049456 18.75701352 -16.875 10.125 C-15.20788284 5.82023737 -12.84829385 2.59341542 -9 0 C-5.29077881 -1.09094741 -3.66905177 -1.22301726 0 0 Z " fill="#E9B957" transform="translate(163,211)"/>
<path d="M0 0 C0.66 0 1.32 0 2 0 C4.20032917 2.23744154 4.95205117 3.61297217 5.34057617 6.74902344 C5.32486572 7.77543945 5.30915527 8.80185547 5.29296875 9.859375 C5.28330078 10.97441406 5.27363281 12.08945312 5.26367188 13.23828125 C5.23853516 14.39714844 5.21339844 15.55601562 5.1875 16.75 C5.16719727 18.51150391 5.16719727 18.51150391 5.14648438 20.30859375 C5.1111478 23.20619298 5.06180979 26.10286427 5 29 C2.08014819 28.31911019 -0.35122304 27.41898766 -3 26 C-3 26.66 -3 27.32 -3 28 C-6.88524962 29.29508321 -10.95970661 29.60123414 -15 29 C-17.8100346 27.20636089 -19.50940468 25.98119065 -21 23 C-21.35294118 16.52941176 -21.35294118 16.52941176 -19 13 C-18.34 13 -17.68 13 -17 13 C-17 12.34 -17 11.68 -17 11 C-13.13806501 7.76095775 -9.79778723 7.69987656 -4.98828125 7.796875 C-3 8 -3 8 -1 9 C-0.67 8.01 -0.34 7.02 0 6 C0.66 6 1.32 6 2 6 C1.34 4.02 0.68 2.04 0 0 Z " fill="#DDA74F" transform="translate(270,276)"/>
<path d="M0 0 C0.99 0 1.98 0 3 0 C3 2.97 3 5.94 3 9 C8.28 9 13.56 9 19 9 C19 10.65 19 12.3 19 14 C14.05 14 9.1 14 4 14 C4.33 23.9 4.66 33.8 5 44 C5.99 44 6.98 44 8 44 C8.66 41.03 9.32 38.06 10 35 C12 36 14 37 16 38 C15.42562214 41.87705056 13.57271945 44.11543577 11 47 C8.11138291 48.44430855 6.20352299 48.37688506 3 48 C-0.29476026 45.41175498 -1.83279929 43.95135403 -2.56762695 39.77026367 C-2.54144287 38.58150635 -2.51525879 37.39274902 -2.48828125 36.16796875 C-2.47216797 34.87568359 -2.45605469 33.58339844 -2.43945312 32.25195312 C-2.39768274 30.89711843 -2.35535809 29.54230072 -2.3125 28.1875 C-2.28740069 26.81319134 -2.26459036 25.43883884 -2.24414062 24.06445312 C-2.18526461 20.70852024 -2.1030642 17.3548191 -2 14 C-3.65 14 -5.3 14 -7 14 C-7 12.68 -7 11.36 -7 10 C-5.35 9.67 -3.7 9.34 -2 9 C-1.34 6.03 -0.68 3.06 0 0 Z " fill="#CA7E30" transform="translate(397,257)"/>
<path d="M0 0 C25.41 0 50.82 0 77 0 C77 1.65 77 3.3 77 5 C74.03 5 71.06 5 68 5 C68 6.65 68 8.3 68 10 C67.34 10 66.68 10 66 10 C66 8.02 66 6.04 66 4 C69.3 4 72.6 4 76 4 C76 3.01 76 2.02 76 1 C61.81 1 47.62 1 33 1 C33 1.99 33 2.98 33 4 C42.57 4 52.14 4 62 4 C62 4.33 62 4.66 62 5 C44.84 5 27.68 5 10 5 C10 6.65 10 8.3 10 10 C10.99 9.67 11.98 9.34 13 9 C16.38615743 8.61014635 19.62330204 8.49009595 23 9 C25.25 11.25 25.25 11.25 26 14 C25.1875 16.3125 25.1875 16.3125 24 18 C23.525625 17.505 23.05125 17.01 22.5625 16.5 C17.43393496 13.49791315 11.59374687 14.88125063 6 16 C6 12.37 6 8.74 6 5 C4.02 5 2.04 5 0 5 C0 3.35 0 1.7 0 0 Z " fill="#E6B554" transform="translate(247,266)"/>
<path d="M0 0 C5 0 5 0 7.76953125 2.12109375 C11.61399287 7.2596111 10.75924034 13.95209411 10.6875 20.0625 C10.71521484 21.32900391 10.74292969 22.59550781 10.77148438 23.90039062 C10.74795966 32.80684723 10.74795966 32.80684723 8.75634766 35.98388672 C5.78446582 38.64481212 3.98921238 39 0 39 C0 26.13 0 13.26 0 0 Z " fill="#80201A" transform="translate(163,212)"/>
<path d="M0 0 C2.50026862 1.1112305 3.31760645 2.38382024 4.6875 4.75 C7.98769509 13.6084184 7.29712387 20.35929554 3.5625 28.87890625 C3.27375 29.49636719 2.985 30.11382812 2.6875 30.75 C-2.0625 30 -2.0625 30 -4.3125 27.75 C-4.11034796 24.81879546 -3.2818286 23.71649739 -1.28125 21.53125 C1.14138138 18.1088025 1.16653877 16.20986351 1.0625 12.0625 C1.04960937 10.92425781 1.03671875 9.78601563 1.0234375 8.61328125 C0.97232425 5.6215624 0.97232425 5.6215624 -1.3125 3.75 C-5.19058937 3.31910118 -7.41480714 3.09492683 -10.625 5.4375 C-14.36598668 10.5640373 -14.69034645 15.41970441 -14.9375 21.5625 C-14.97617188 22.35076172 -15.01484375 23.13902344 -15.0546875 23.95117188 C-15.14838844 25.8837538 -15.23150779 27.81684376 -15.3125 29.75 C-16.9625 29.42 -18.6125 29.09 -20.3125 28.75 C-20.3125 19.51 -20.3125 10.27 -20.3125 0.75 C-18.6625 0.75 -17.0125 0.75 -15.3125 0.75 C-15.3125 1.74 -15.3125 2.73 -15.3125 3.75 C-14.6525 3.09 -13.9925 2.43 -13.3125 1.75 C-8.77736996 -1.27342003 -5.3551952 -0.57894002 0 0 Z " fill="#D69C48" transform="translate(185.3125,275.25)"/>
<path d="M0 0 C2.97013847 1.31937969 3.84145946 2.34333472 6 5 C6.41376609 7.91336671 6.05003292 10.2592361 5 13 C3.0625 15 3.0625 15 1 16 C0.34 16 -0.32 16 -1 16 C-3 13 -3 13 -2.75 11.25 C-2.5025 10.5075 -2.255 9.765 -2 9 C-1.4740625 7.14375 -1.4740625 7.14375 -0.9375 5.25 C-0.628125 4.1775 -0.31875 3.105 0 2 C-5.25666839 3.38512485 -5.25666839 3.38512485 -9 7 C-11.71214748 14.68441786 -11.62783108 22.92981074 -12 31 C-16.875 29.125 -16.875 29.125 -18 28 C-18.08758003 26.00035018 -18.10696576 23.9976389 -18.09765625 21.99609375 C-18.09443359 20.78115234 -18.09121094 19.56621094 -18.08789062 18.31445312 C-18.07951172 17.03505859 -18.07113281 15.75566406 -18.0625 14.4375 C-18.05798828 13.15423828 -18.05347656 11.87097656 -18.04882812 10.54882812 C-18.03699545 7.36583978 -18.02051068 4.18294238 -18 1 C-13.25 0.875 -13.25 0.875 -11 2 C-7.28704875 -0.47530083 -4.30230185 -0.76826819 0 0 Z " fill="#DBA14A" transform="translate(348,275)"/>
<path d="M0 0 C9.9 0 19.8 0 30 0 C30 1.65 30 3.3 30 5 C29.01 5 28.02 5 27 5 C27 8.96 27 12.92 27 17 C25.35 16.67 23.7 16.34 22 16 C20.12735154 15.88722145 18.25099689 15.82542009 16.375 15.8125 C15.43398437 15.79832031 14.49296875 15.78414063 13.5234375 15.76953125 C10.75295977 15.82039293 10.75295977 15.82039293 8 18 C6.68 18 5.36 18 4 18 C4 17.01 4 16.02 4 15 C5.31787285 13.97971135 6.65210653 12.98028616 8 12 C8.33 11.01 8.66 10.02 9 9 C10.77074917 8.97294271 12.54161711 8.95357805 14.3125 8.9375 C15.29863281 8.92589844 16.28476563 8.91429687 17.30078125 8.90234375 C20 9 20 9 23 10 C23 8.35 23 6.7 23 5 C15.41 5 7.82 5 0 5 C0 3.35 0 1.7 0 0 Z " fill="#D18F3C" transform="translate(215,266)"/>
<path d="M0 0 C2.99612869 1.36009736 4.89016519 3.57245262 7.15600586 5.92773438 C8.04803711 6.84683594 8.94006836 7.7659375 9.85913086 8.71289062 C10.53459961 9.42316406 11.21006836 10.1334375 11.90600586 10.86523438 C8.90600586 10.86523438 8.90600586 10.86523438 6.64428711 8.89648438 C5.8437793 8.06117188 5.04327148 7.22585937 4.21850586 6.36523438 C3.41026367 5.52992188 2.60202148 4.69460937 1.76928711 3.83398438 C0.84696289 2.85945312 0.84696289 2.85945312 -0.09399414 1.86523438 C-5.3457434 6.24965963 -10.22621887 10.8736553 -15.03149414 15.74023438 C-15.7153418 16.42859375 -16.39918945 17.11695313 -17.10375977 17.82617188 C-18.76950878 19.50356949 -20.43285634 21.18327228 -22.09399414 22.86523438 C-21.43399414 23.52523437 -20.77399414 24.18523437 -20.09399414 24.86523438 C-20.73336914 25.79335937 -21.37274414 26.72148437 -22.03149414 27.67773438 C-26.1175502 33.99254828 -25.78223 40.54490749 -25.09399414 47.86523438 C-23.07880018 54.46673184 -19.82331548 59.08388229 -14.09399414 62.86523438 C-11.78639284 64.00973018 -9.50762729 64.94805378 -7.09399414 65.86523438 C-7.09399414 67.18523437 -7.09399414 68.50523437 -7.09399414 69.86523438 C-13.97245377 68.85369619 -18.46852385 65.97759627 -23.09399414 60.86523438 C-23.79524414 60.10210937 -24.49649414 59.33898437 -25.21899414 58.55273438 C-30.84266077 50.49214554 -30.8555217 42.45404614 -30.09399414 32.86523438 C-28.22973171 23.22481426 -17.48444362 14.99998714 -10.90649414 8.30273438 C-10.11307617 7.47193359 -9.3196582 6.64113281 -8.50219727 5.78515625 C-7.73456055 5.00591797 -6.96692383 4.22667969 -6.17602539 3.42382812 C-5.48742432 2.71540771 -4.79882324 2.0069873 -4.08935547 1.27709961 C-2.09399414 -0.13476562 -2.09399414 -0.13476562 0 0 Z " fill="#C48033" transform="translate(399.093994140625,175.134765625)"/>
<path d="M0 0 C9.9 0 19.8 0 30 0 C30 1.65 30 3.3 30 5 C23.73 5 17.46 5 11 5 C11 6.32 11 7.64 11 9 C12.22976562 8.91298828 12.22976562 8.91298828 13.484375 8.82421875 C22.31428571 8.45454545 22.31428571 8.45454545 25.75 11.1875 C27.03892955 14.08759148 27.35777804 15.86944216 27 19 C25.02 19.33 23.04 19.66 21 20 C21.66 19.67 22.32 19.34 23 19 C22.34 17.68 21.68 16.36 21 15 C19.60427948 14.97263293 18.20839779 14.95344011 16.8125 14.9375 C15.64654297 14.92009766 15.64654297 14.92009766 14.45703125 14.90234375 C11.55270381 14.95337665 11.55270381 14.95337665 7 16 C7 12.37 7 8.74 7 5 C5.02 5 3.04 5 1 5 C0.67 3.35 0.34 1.7 0 0 Z " fill="#F0CB64" transform="translate(130,266)"/>
<path d="M0 0 C1.875 1.125 1.875 1.125 3 3 C3.60069534 6.86161288 3.17888362 8.66873403 1.3125 12.125 C-4.02694899 18.76323388 -4.02694899 18.76323388 -9.125 19.375 C-12 19 -12 19 -15 17 C-15.52071766 12.46231752 -15.71022043 10.15739626 -13.3125 6.25 C-12.1678125 5.13625 -12.1678125 5.13625 -11 4 C-9.824375 2.8553125 -9.824375 2.8553125 -8.625 1.6875 C-5.4311996 -0.3656574 -3.73024906 -0.5676466 0 0 Z " fill="#7D1B18" transform="translate(89,280)"/>
<path d="M0 0 C20.13 0 40.26 0 61 0 C61 1.65 61 3.3 61 5 C54.73 5 48.46 5 42 5 C42 6.32 42 7.64 42 9 C45.63 9 49.26 9 53 9 C53 9.33 53 9.66 53 10 C49.04 10 45.08 10 41 10 C41 8.02 41 6.04 41 4 C47.27 4 53.54 4 60 4 C60 3.01 60 2.02 60 1 C50.76 1 41.52 1 32 1 C32 1.99 32 2.98 32 4 C33.65 4 35.3 4 37 4 C37 4.33 37 4.66 37 5 C24.79 5 12.58 5 0 5 C0 3.35 0 1.7 0 0 Z " fill="#B26029" transform="translate(326,266)"/>
<path d="M0 0 C0.33 0 0.66 0 1 0 C1.91080946 14.50066489 1.31929745 23.54917267 -7.82421875 35.35546875 C-13.51095725 41.70983273 -21.73981912 46.6148718 -30.25 47.875 C-31.61125 47.936875 -31.61125 47.936875 -33 48 C-33 46.68 -33 45.36 -33 44 C-31.7315625 43.56300781 -31.7315625 43.56300781 -30.4375 43.1171875 C-17.34366777 38.38555267 -11.14241789 33.4656239 -5 20.96484375 C-2.97624856 16.2265411 -2.55008039 11.63806885 -2.30859375 6.515625 C-1.99071421 3.92430319 -1.30379352 2.24105875 0 0 Z " fill="#D0964D" transform="translate(437,208)"/>
<path d="M0 0 C25.41 0 50.82 0 77 0 C77 1.65 77 3.3 77 5 C74.03 5 71.06 5 68 5 C68 6.65 68 8.3 68 10 C67.34 10 66.68 10 66 10 C66 8.02 66 6.04 66 4 C69.3 4 72.6 4 76 4 C76 3.01 76 2.02 76 1 C61.81 1 47.62 1 33 1 C33 1.99 33 2.98 33 4 C42.57 4 52.14 4 62 4 C62 4.33 62 4.66 62 5 C44.84 5 27.68 5 10 5 C10 4.67 10 4.34 10 4 C16.27 4 22.54 4 29 4 C29 3.01 29 2.02 29 1 C19.76 1 10.52 1 1 1 C1 1.99 1 2.98 1 4 C2.65 4 4.3 4 6 4 C6 4.33 6 4.66 6 5 C4.02 5 2.04 5 0 5 C0 3.35 0 1.7 0 0 Z " fill="#C38A45" transform="translate(247,266)"/>
<path d="M0 0 C11.55 0 23.1 0 35 0 C34.67 1.65 34.34 3.3 34 5 C22.78 5 11.56 5 0 5 C0 3.35 0 1.7 0 0 Z " fill="#C47930" transform="translate(63,266)"/>
<path d="M0 0 C2.8125 1.625 2.8125 1.625 5 4 C5.67927401 7.62279473 5.46942769 9.25673949 3.5 12.375 C-0.24099229 14.80664499 -2.57426418 14.49174842 -7 14 C-9 12.9375 -9 12.9375 -10 11 C-10.5 7.5625 -10.5 7.5625 -10 4 C-6.96922817 0.62285425 -4.53958287 -0.90791657 0 0 Z " fill="#D5943E" transform="translate(268,326)"/>
<path d="M0 0 C7 1 7 1 8 2 C8.18023553 4.80694683 8.27807437 7.56586827 8.3125 10.375 C8.34150391 11.15617188 8.37050781 11.93734375 8.40039062 12.7421875 C8.46408879 18.46522219 8.46408879 18.46522219 6.23046875 21.0390625 C4 22 4 22 0 22 C0 14.74 0 7.48 0 0 Z " fill="#7E1D1A" transform="translate(244,228)"/>
<path d="M0 0 C2.73809293 0.08297251 4.49496479 0.50168069 6.46875 2.44921875 C6.9946875 3.04347656 7.520625 3.63773438 8.0625 4.25 C14.23530007 10.81365423 23.40236403 13.18126931 32 15 C32 12.69 32 10.38 32 8 C32.66 7.67 33.32 7.34 34 7 C34 10.63 34 14.26 34 18 C23.93487161 18.43136265 15.81062638 17.17733852 7.828125 10.6875 C4.95193113 8.03255182 2.20748277 5.24433074 0 2 C0 1.34 0 0.68 0 0 Z " fill="#E9B260" transform="translate(365,238)"/>
<path d="M0 0 C2.34241005 1.83000785 2.9274241 2.51616066 3.375 5.5 C2.92367685 8.508821 2.40536732 9.19339365 0 11 C-2.59375 11.3984375 -2.59375 11.3984375 -5.5 11.375 C-6.4590625 11.38273438 -7.418125 11.39046875 -8.40625 11.3984375 C-11 11 -11 11 -12.8125 9.6328125 C-14 8 -14 8 -14.5 5.5 C-14 3 -14 3 -12.0625 1.1875 C-8.0677053 -0.36150203 -4.23612805 -0.80914805 0 0 Z " fill="#DFA648" transform="translate(215,196)"/>
<path d="M0 0 C10.56 0 21.12 0 32 0 C32 1.65 32 3.3 32 5 C21.44 5 10.88 5 0 5 C0 3.35 0 1.7 0 0 Z " fill="#D59945" transform="translate(162,266)"/>
<path d="M0 0 C0.66 0.33 1.32 0.66 2 1 C1.6740051 4.04261908 1.02104739 4.9801219 -1.25 7.125 C-5.43282969 9.97692933 -8.87100242 11.55448623 -14 11 C-14.66 10.34 -15.32 9.68 -16 9 C-16 5.26944022 -14.96784155 3.96301778 -12.5 1.125 C-8.54387542 -1.94771812 -4.6273048 -1.16608081 0 0 Z " fill="#812019" transform="translate(378,290)"/>
<path d="M0 0 C2.9375 1.5 2.9375 1.5 5 3 C3.47255894 7.27683498 0.99924698 9.00037651 -3 11 C-6.3629864 11.32124049 -9.63360448 11.2395064 -13 11 C-13.375 8.3125 -13.375 8.3125 -13 5 C-8.94186265 0.44696785 -6.2575823 -0.91019379 0 0 Z " fill="#84251C" transform="translate(265,289)"/>
<path d="M0 0 C2.9375 1.5 2.9375 1.5 5 3 C3.47255894 7.27683498 0.99924698 9.00037651 -3 11 C-6.3629864 11.32124049 -9.63360448 11.2395064 -13 11 C-13.375 8.3125 -13.375 8.3125 -13 5 C-8.94186265 0.44696785 -6.2575823 -0.91019379 0 0 Z " fill="#83231B" transform="translate(117,289)"/>
<path d="M0 0 C2.375 1 2.375 1 4 2 C3.875 4.25 3.875 4.25 3 7 C-1.48046019 10.9340626 -5.21671457 11.80722382 -11 12 C-11.66 11.34 -12.32 10.68 -13 10 C-13 6.16349665 -11.99203158 4.99166096 -9.3125 2.1875 C-5.68331428 -0.20913208 -4.23623691 -0.64464475 0 0 Z " fill="#82241C" transform="translate(148,289)"/>
<path d="M0 0 C7.23809524 -0.36190476 7.23809524 -0.36190476 10.5 1.1875 C12 3 12 3 12.25 5.6875 C12.1675 6.450625 12.085 7.21375 12 8 C11.01 8.33 10.02 8.66 9 9 C9.66 10.65 10.32 12.3 11 14 C10.01 14 9.02 14 8 14 C7.34 13.01 6.68 12.02 6 11 C5.01 10.67 4.02 10.34 3 10 C3 11.65 3 13.3 3 15 C2.01 15 1.02 15 0 15 C0 10.05 0 5.1 0 0 Z " fill="#CB7D2C" transform="translate(392,326)"/>
<path d="M0 0 C0.99 0 1.98 0 3 0 C3 0.99 3 1.98 3 3 C4.32 3 5.64 3 7 3 C6.125 9.875 6.125 9.875 5 11 C4.76298761 13.85877909 4.57780818 16.69883297 4.4375 19.5625 C4.39431641 20.36880859 4.35113281 21.17511719 4.30664062 22.00585938 C4.20024738 24.00368805 4.09959112 26.0018207 4 28 C3.01 28 2.02 28 1 28 C-0.35700647 25.28598706 -0.1123861 23.15153684 -0.09765625 20.1171875 C-0.09443359 18.95058594 -0.09121094 17.78398437 -0.08789062 16.58203125 C-0.07951172 15.35871094 -0.07113281 14.13539063 -0.0625 12.875 C-0.05798828 11.64394531 -0.05347656 10.41289062 -0.04882812 9.14453125 C-0.0370133 6.09630608 -0.02054028 3.04817686 0 0 Z " fill="#EBBE5A" transform="translate(166,277)"/>
<path d="M0 0 C5.39356921 2.37514974 9.58222761 6.23518105 13 11 C13.71875495 14.47800213 13.58998274 17.51108974 13 21 C11 21 11 21 9.4140625 19.49609375 C0.21142015 8.90702712 0.21142015 8.90702712 -0.25 2.5625 C-0.1675 1.716875 -0.085 0.87125 0 0 Z " fill="#872A1E" transform="translate(383,213)"/>
<path d="M0 0 C-0.29811228 8.34714395 -3.81408412 12.46009346 -9.25 18.5 C-11 20 -11 20 -13 20 C-13.65506972 16.36734067 -13.92692728 14.5072924 -13 11 C-4.41153846 0 -4.41153846 0 0 0 Z " fill="#87291E" transform="translate(413,214)"/>
<path d="M0 0 C0.66 0.33 1.32 0.66 2 1 C-2.11907371 5.98137923 -6.53640837 10.59371332 -11.15234375 15.109375 C-11.70080963 15.64759888 -12.24927551 16.18582275 -12.81436157 16.74035645 C-15.10470143 18.98534427 -17.39717695 21.22782965 -19.70336914 23.45654297 C-21.40375788 25.10266146 -23.09134847 26.76103488 -24.77734375 28.421875 C-25.30222885 28.92297791 -25.82711395 29.42408081 -26.36790466 29.94036865 C-28.00214941 31.51725892 -28.00214941 31.51725892 -30 34 C-30 35.32 -30 36.64 -30 38 C-30.66 38.66 -31.32 39.32 -32 40 C-33.32 40 -34.64 40 -36 40 C-34.61285625 35.87526567 -32.76998519 33.29959259 -29.8125 30.125 C-29.36414795 29.64321289 -28.9157959 29.16142578 -28.45385742 28.66503906 C-19.22252301 18.87303834 -9.55393373 9.47565241 0 0 Z " fill="#BF7C32" transform="translate(397,159)"/>
<path d="M0 0 C2.9375 0.1875 2.9375 0.1875 3.9375 1.1875 C4.06237758 2.99677281 4.11320846 4.81146107 4.125 6.625 C4.13917969 7.61371094 4.15335937 8.60242188 4.16796875 9.62109375 C3.9375 12.1875 3.9375 12.1875 1.9375 14.1875 C-0.5625 14.4375 -0.5625 14.4375 -3.0625 14.1875 C-5.0625 12.1875 -5.0625 12.1875 -5.328125 9.875 C-5.32296875 8.988125 -5.3178125 8.10125 -5.3125 7.1875 C-5.31765625 6.300625 -5.3228125 5.41375 -5.328125 4.5 C-4.89507748 0.72993924 -3.67550161 0.22503071 0 0 Z " fill="#D19B4C" transform="translate(321.0625,325.8125)"/>
<path d="M0 0 C0.33 1.32 0.66 2.64 1 4 C-2.22183356 7.22183356 -5.44898803 7.70874736 -9.8203125 8.07421875 C-12.89173775 7.96963617 -14.59824458 6.85278275 -17 5 C-18.32400856 4.31500106 -19.65613274 3.64516898 -21 3 C-18.43850372 2.49432271 -15.87600535 1.99529868 -13.3125 1.5 C-12.59126953 1.35691406 -11.87003906 1.21382813 -11.12695312 1.06640625 C-7.36158641 0.34428113 -3.85526187 -0.1824976 0 0 Z " fill="#83231A" transform="translate(241,292)"/>
<path d="M0 0 C3.19493471 0.0576703 5.24365268 0.53429225 7.875 2.375 C10.71231498 5.86707998 10.71231498 5.86707998 10.4375 9.5 C9.84504755 12.32882702 9.4382414 13.24520243 7.375 15.375 C5.3125 16.375 5.3125 16.375 3.3125 16.375 C1.3125 13.375 1.3125 13.375 1.5625 11.625 C1.81 10.8825 2.0575 10.14 2.3125 9.375 C2.663125 8.1375 3.01375 6.9 3.375 5.625 C3.684375 4.5525 3.99375 3.48 4.3125 2.375 C2.0025 3.035 -0.3075 3.695 -2.6875 4.375 C-2.6875 3.715 -2.6875 3.055 -2.6875 2.375 C-3.3475 2.045 -4.0075 1.715 -4.6875 1.375 C-3.6875 0.375 -3.6875 0.375 0 0 Z " fill="#CF8837" transform="translate(343.6875,274.625)"/>
<path d="M0 0 C0.33 0.99 0.66 1.98 1 3 C-1.64 3 -4.28 3 -7 3 C-7 3.99 -7 4.98 -7 6 C-6.071875 5.95875 -5.14375 5.9175 -4.1875 5.875 C-1 6 -1 6 2 8 C2.25 10.5625 2.25 10.5625 2 13 C1 14 1 14 -1.50390625 14.09765625 C-3.01791016 14.08025391 -3.01791016 14.08025391 -4.5625 14.0625 C-5.57441406 14.05347656 -6.58632813 14.04445313 -7.62890625 14.03515625 C-8.41136719 14.02355469 -9.19382812 14.01195312 -10 14 C-10 13.01 -10 12.02 -10 11 C-7.36 11 -4.72 11 -2 11 C-1.67 10.34 -1.34 9.68 -1 9 C-2.3921875 9.061875 -2.3921875 9.061875 -3.8125 9.125 C-7 9 -7 9 -10 7 C-10.375 4.5 -10.375 4.5 -10 2 C-6.3558226 -0.4294516 -4.28758728 -0.16179575 0 0 Z " fill="#C57529" transform="translate(420,326)"/>
<path d="M0 0 C-4.51058728 6.76588092 -11.49122202 10.59056349 -19.3359375 12.59765625 C-21.25 12.875 -21.25 12.875 -24 13 C-24 11.68 -24 10.36 -24 9 C-23.11957031 8.68546875 -22.23914063 8.3709375 -21.33203125 8.046875 C-20.17058594 7.61890625 -19.00914062 7.1909375 -17.8125 6.75 C-16.66394531 6.33234375 -15.51539063 5.9146875 -14.33203125 5.484375 C-1.67193196 -0.15552855 -1.67193196 -0.15552855 0 0 Z " fill="#C98E48" transform="translate(428,243)"/>
<path d="M0 0 C0.99 0 1.98 0 3 0 C3 1.65 3 3.3 3 5 C5.31 5 7.62 5 10 5 C10 3.35 10 1.7 10 0 C10.99 0 11.98 0 13 0 C13 4.29 13 8.58 13 13 C12.01 13 11.02 13 10 13 C10 11.35 10 9.7 10 8 C7.69 8 5.38 8 3 8 C3 9.65 3 11.3 3 13 C2.01 13 1.02 13 0 13 C0 8.71 0 4.42 0 0 Z " fill="#D38E38" transform="translate(104,327)"/>
<path d="M0 0 C1.859375 0.23046875 1.859375 0.23046875 4 1 C5.265625 2.92578125 5.265625 2.92578125 6.25 5.3125 C6.58515625 6.09238281 6.9203125 6.87226563 7.265625 7.67578125 C8 10 8 10 8 14 C6.0625 13.6875 6.0625 13.6875 4 13 C3.67 12.01 3.34 11.02 3 10 C2.34 9.67 1.68 9.34 1 9 C1 9.66 1 10.32 1 11 C0.34 11 -0.32 11 -1 11 C-1 11.99 -1 12.98 -1 14 C-2.32 14 -3.64 14 -5 14 C-4.54636829 12.41531323 -4.08688548 10.83230076 -3.625 9.25 C-3.36976563 8.36828125 -3.11453125 7.4865625 -2.8515625 6.578125 C-2.0790066 4.23919428 -1.16374324 2.16557438 0 0 Z " fill="#D2903E" transform="translate(203,326)"/>
<path d="M0 0 C2.97 0 5.94 0 9 0 C9 1.32 9 2.64 9 4 C7.35 4 5.7 4 4 4 C4 4.66 4 5.32 4 6 C5.65 6.33 7.3 6.66 9 7 C9.625 9.375 9.625 9.375 10 12 C8 14 8 14 4.375 14.125 C3.26125 14.08375 2.1475 14.0425 1 14 C1 13.34 1 12.68 1 12 C2.65 12 4.3 12 6 12 C6 11.01 6 10.02 6 9 C5.195625 9.020625 4.39125 9.04125 3.5625 9.0625 C1 9 1 9 0 8 C-0.14115161 5.32941149 -0.04247107 2.67567762 0 0 Z " fill="#C28A46" transform="translate(301,326)"/>
<path d="M0 0 C0.33 0.99 0.66 1.98 1 3 C-1.31 3 -3.62 3 -6 3 C-6.33 4.98 -6.66 6.96 -7 9 C-5.35 9.33 -3.7 9.66 -2 10 C-1.67 9.01 -1.34 8.02 -1 7 C-0.01 7 0.98 7 2 7 C1.125 11.875 1.125 11.875 0 13 C-7.05202312 13.57803468 -7.05202312 13.57803468 -10.5625 11.4375 C-12 9 -12 9 -12 5.4375 C-11 2 -11 2 -9.375 0 C-6.01155688 -1.41618658 -3.50376557 -0.74118118 0 0 Z " fill="#DFA648" transform="translate(192,327)"/>
<path d="M0 0 C1.51400391 0.01740234 1.51400391 0.01740234 3.05859375 0.03515625 C4.07050781 0.04417969 5.08242188 0.05320312 6.125 0.0625 C7.29869141 0.07990234 7.29869141 0.07990234 8.49609375 0.09765625 C8.49609375 1.08765625 8.49609375 2.07765625 8.49609375 3.09765625 C5.52609375 3.09765625 2.55609375 3.09765625 -0.50390625 3.09765625 C-0.50390625 4.08765625 -0.50390625 5.07765625 -0.50390625 6.09765625 C2.13609375 6.09765625 4.77609375 6.09765625 7.49609375 6.09765625 C7.49609375 7.08765625 7.49609375 8.07765625 7.49609375 9.09765625 C4.85609375 9.09765625 2.21609375 9.09765625 -0.50390625 9.09765625 C-0.50390625 11.07765625 -0.50390625 13.05765625 -0.50390625 15.09765625 C-1.49390625 15.09765625 -2.48390625 15.09765625 -3.50390625 15.09765625 C-3.53076037 12.78521833 -3.55023466 10.47269355 -3.56640625 8.16015625 C-3.57800781 6.87238281 -3.58960938 5.58460938 -3.6015625 4.2578125 C-3.47417331 0.13549818 -3.47417331 0.13549818 0 0 Z " fill="#CF9144" transform="translate(280.50390625,325.90234375)"/>
<path d="M0 0 C3.63 0 7.26 0 11 0 C11 0.66 11 1.32 11 2 C8.36 2 5.72 2 3 2 C3 2.99 3 3.98 3 5 C5.64 5 8.28 5 11 5 C11 5.99 11 6.98 11 8 C8.36 8 5.72 8 3 8 C3 8.99 3 9.98 3 11 C5.64 11 8.28 11 11 11 C11 11.66 11 12.32 11 13 C7.37 13 3.74 13 0 13 C0 8.71 0 4.42 0 0 Z " fill="#DA9C42" transform="translate(123,327)"/>
<path d="M0 0 C9.24 0 18.48 0 28 0 C28 0.99 28 1.98 28 3 C18.595 3.495 18.595 3.495 9 4 C8.67 5.65 8.34 7.3 8 9 C7.67 9 7.34 9 7 9 C7 7.35 7 5.7 7 4 C4.69 3.67 2.38 3.34 0 3 C0 2.01 0 1.02 0 0 Z " fill="#D48C33" transform="translate(358,267)"/>
<path d="M0 0 C3.63 0 7.26 0 11 0 C11 0.66 11 1.32 11 2 C8.36 2 5.72 2 3 2 C3 2.99 3 3.98 3 5 C5.31 5 7.62 5 10 5 C10 5.99 10 6.98 10 8 C7.69 8 5.38 8 3 8 C3 8.99 3 9.98 3 11 C5.64 11 8.28 11 11 11 C11 11.66 11 12.32 11 13 C7.37 13 3.74 13 0 13 C0 8.71 0 4.42 0 0 Z " fill="#EBC760" transform="translate(165,327)"/>
<path d="M0 0 C2.89104992 1.29598789 5.03018393 2.49296136 7 5 C7.29296875 7.48046875 7.29296875 7.48046875 7.1875 10.1875 C7.16042969 11.08855469 7.13335937 11.98960937 7.10546875 12.91796875 C7.07066406 13.60503906 7.03585937 14.29210937 7 15 C4.14885445 13.69555432 1.95252254 12.29447569 -0.3125 10.125 C-0.84488281 9.63257813 -1.37726563 9.14015625 -1.92578125 8.6328125 C-3 7 -3 7 -2.79296875 4.9921875 C-2 3 -2 3 0 0 Z " fill="#892C1D" transform="translate(389,203)"/>
<path d="M0 0 C0.33 0 0.66 0 1 0 C1.37634203 6.80203375 0.77471079 11.75690073 -2 18 C-6.75 17.25 -6.75 17.25 -9 15 C-8.69820729 11.38603233 -6.9195096 9.51070795 -4.5 6.9375 C-2.21172538 4.4944855 -1.07316243 3.21948729 0 0 Z " fill="#DDA54A" transform="translate(190,288)"/>
<path d="M0 0 C1.2674707 0.00870117 1.2674707 0.00870117 2.56054688 0.01757812 C8.741727 0.140318 8.741727 0.140318 12.1875 2.4375 C6.7425 1.9425 6.7425 1.9425 1.1875 1.4375 C1.5175 2.7575 1.8475 4.0775 2.1875 5.4375 C1.5275 5.1075 0.8675 4.7775 0.1875 4.4375 C-4.44463493 3.88237185 -7.79422127 3.8010758 -11.8125 6.3125 C-13.85041396 8.27387134 -13.85041396 8.27387134 -14.8125 10.4375 C-15.8025 10.4375 -16.7925 10.4375 -17.8125 10.4375 C-18.3125 8.25 -18.3125 8.25 -17.8125 5.4375 C-12.46262021 0.45865302 -7.03449711 -0.28006195 0 0 Z " fill="#D69945" transform="translate(249.8125,208.5625)"/>
<path d="M0 0 C3.43093641 0.44587659 5.07731751 1.71835411 7.453125 4.16015625 C8.071875 4.78857422 8.690625 5.41699219 9.328125 6.06445312 C9.96234375 6.72380859 10.5965625 7.38316406 11.25 8.0625 C12.22453125 9.05733398 12.22453125 9.05733398 13.21875 10.07226562 C14.8194676 11.70829317 16.41276193 13.35090912 18 15 C17.67 15.66 17.34 16.32 17 17 C12.05 12.05 7.1 7.1 2 2 C-5.26 9.26 -12.52 16.52 -20 24 C-20 19.81538686 -17.78239038 17.86649286 -15 15 C-13.30765402 13.51668488 -11.57808342 12.08621151 -9.84375 10.65234375 C-6.5770115 7.724737 -3.82597635 4.34487031 -1 1 C-0.67 0.67 -0.34 0.34 0 0 Z " fill="#9B4624" transform="translate(397,180)"/>
<path d="M0 0 C8.91 0 17.82 0 27 0 C27 0.99 27 1.98 27 3 C17.595 3.495 17.595 3.495 8 4 C7.67 5.98 7.34 7.96 7 10 C6.67 10 6.34 10 6 10 C6 8.02 6 6.04 6 4 C5.34 4 4.68 4 4 4 C4 3.34 4 2.68 4 2 C2.68 2 1.36 2 0 2 C0 1.34 0 0.68 0 0 Z " fill="#F7D76A" transform="translate(132,267)"/>
<path d="M0 0 C3.47899158 1.39159663 4.48052501 2.63251488 6 6 C5.43410156 6.48210937 4.86820312 6.96421875 4.28515625 7.4609375 C3.55167969 8.09257812 2.81820313 8.72421875 2.0625 9.375 C1.33160156 10.00148437 0.60070312 10.62796875 -0.15234375 11.2734375 C-2.08380906 12.87747714 -2.08380906 12.87747714 -3 15 C-3.66 15 -4.32 15 -5 15 C-5.76681614 6.22421525 -5.76681614 6.22421525 -3.88671875 3.22265625 C-2.5 1.875 -2.5 1.875 0 0 Z " fill="#80201A" transform="translate(405,204)"/>
<path d="M0 0 C9.9 0 19.8 0 30 0 C30 1.65 30 3.3 30 5 C23.73 5 17.46 5 11 5 C11 6.32 11 7.64 11 9 C14.96 9 18.92 9 23 9 C23 9.33 23 9.66 23 10 C18.71 10 14.42 10 10 10 C10 8.02 10 6.04 10 4 C16.27 4 22.54 4 29 4 C29 3.01 29 2.02 29 1 C20.09 1 11.18 1 2 1 C2 1.66 2 2.32 2 3 C3.32 3 4.64 3 6 3 C6 3.66 6 4.32 6 5 C4.35 5 2.7 5 1 5 C0.67 3.35 0.34 1.7 0 0 Z " fill="#C69149" transform="translate(130,266)"/>
<path d="M0 0 C3.3 0 6.6 0 10 0 C10 0.66 10 1.32 10 2 C7.36 2 4.72 2 2 2 C2 2.99 2 3.98 2 5 C4.64 5 7.28 5 10 5 C10 5.99 10 6.98 10 8 C7.36 8 4.72 8 2 8 C2 8.99 2 9.98 2 11 C4.97 11 7.94 11 11 11 C11 11.66 11 12.32 11 13 C7.37 13 3.74 13 0 13 C0 8.71 0 4.42 0 0 Z " fill="#DB9C41" transform="translate(358,327)"/>
<path d="M0 0 C5.61 0 11.22 0 17 0 C17.33 0.99 17.66 1.98 18 3 C19.98 2.34 21.96 1.68 24 1 C23.67 1.66 23.34 2.32 23 3 C23.99 3.66 24.98 4.32 26 5 C25.05125 5.309375 24.1025 5.61875 23.125 5.9375 C20.13919592 6.87394742 20.13919592 6.87394742 18 8 C16.5393715 5.35261084 16 4.10551666 16 1 C11.05 1 6.1 1 1 1 C1 14.86 1 28.72 1 43 C0.67 43 0.34 43 0 43 C0 28.81 0 14.62 0 0 Z " fill="#C18949" transform="translate(280,210)"/>
<path d="M0 0 C0.33 0 0.66 0 1 0 C0.81523971 4.61900713 0.20125576 7.21982079 -3.0625 10.4375 C-4.031875 11.283125 -5.00125 12.12875 -6 13 C-8.49361571 11.79618552 -10.68143083 10.54571278 -13 9 C-13 8.34 -13 7.68 -13 7 C-12.14535156 6.57847656 -11.29070312 6.15695312 -10.41015625 5.72265625 C-9.30542969 5.17480469 -8.20070313 4.62695312 -7.0625 4.0625 C-5.96035156 3.51722656 -4.85820312 2.97195313 -3.72265625 2.41015625 C-1.15205586 1.25295022 -1.15205586 1.25295022 0 0 Z " fill="#EEC45E" transform="translate(319,292)"/>
<path d="M0 0 C0.66 1.32 1.32 2.64 2 4 C0.865625 3.979375 -0.26875 3.95875 -1.4375 3.9375 C-4.81575674 3.58422523 -4.81575674 3.58422523 -6 5 C-6.04063832 6.66617115 -6.042721 8.33388095 -6 10 C-2.846632 10.70074844 -0.27275026 11 3 11 C3 11.66 3 12.32 3 13 C-0.18985607 14.59492803 -3.52932887 14.37616681 -7 14 C-9 12.9375 -9 12.9375 -10 11 C-10.50030235 7.06905293 -10.5996142 4.8994213 -8.375 1.5625 C-5.397402 -0.39644605 -3.49644963 -0.31785906 0 0 Z " fill="#D59139" transform="translate(225,326)"/>
<path d="M0 0 C0.66 0 1.32 0 2 0 C0.66398043 5.67808316 -3.47833051 7.87748862 -8 11 C-9.03253906 11.82564453 -9.03253906 11.82564453 -10.0859375 12.66796875 C-12.51563054 14.35883676 -14.10348912 14.24137591 -17 14 C-16.8984375 11.6953125 -16.8984375 11.6953125 -16 9 C-13.1640625 7.3046875 -13.1640625 7.3046875 -9.625 5.875 C-4.28837324 3.69112607 -4.28837324 3.69112607 0 0 Z " fill="#D99B55" transform="translate(421,231)"/>
<path d="M0 0 C3 1 3 1 4.38671875 3.43359375 C4.81597656 4.42488281 5.24523437 5.41617187 5.6875 6.4375 C6.34298828 7.92056641 6.34298828 7.92056641 7.01171875 9.43359375 C8 12 8 12 8 14 C7.01 14 6.02 14 5 14 C3.02 10.535 3.02 10.535 1 7 C0.01 9.31 -0.98 11.62 -2 14 C-2.99 14 -3.98 14 -5 14 C-4.46515599 8.65155992 -2.53309233 4.64203897 0 0 Z " fill="#C97A2C" transform="translate(379,326)"/>
<path d="M0 0 C3.86465302 1.25032892 6.34373405 3.08966695 9.375 5.7578125 C12.02628619 7.78451685 14.89211928 8.81900533 18 10 C18 11.32 18 12.64 18 14 C11.09277055 12.98423096 6.68989363 10.0807181 2 5 C1.34 4.34 0.68 3.68 0 3 C0 2.01 0 1.02 0 0 Z " fill="#E1A651" transform="translate(374,231)"/>
<path d="M0 0 C4.04159191 0.12247248 5.77319743 1.56268062 8.4375 4.375 C9.0253125 5.00277344 9.613125 5.63054687 10.21875 6.27734375 C12.53872101 8.52099993 15.03595672 9.77100644 18 11 C16.68 11.99 15.36 12.98 14 14 C8.63679766 11.77623318 4.56101275 8.56162791 1 4 C0.30078125 1.77734375 0.30078125 1.77734375 0 0 Z " fill="#DEA250" transform="translate(365,238)"/>
<path d="M0 0 C8.58 0 17.16 0 26 0 C25.01 1.485 25.01 1.485 24 3 C21.56982422 3.34057617 21.56982422 3.34057617 18.5546875 3.29296875 C17.47832031 3.28330078 16.40195312 3.27363281 15.29296875 3.26367188 C14.16503906 3.23853516 13.03710938 3.21339844 11.875 3.1875 C10.73933594 3.17396484 9.60367187 3.16042969 8.43359375 3.14648438 C5.62192613 3.11104319 2.81119583 3.06163517 0 3 C0 2.01 0 1.02 0 0 Z " fill="#F7D76A" transform="translate(280,267)"/>
<path d="M0 0 C0.33 0 0.66 0 1 0 C1 3.63 1 7.26 1 11 C2.65 10.34 4.3 9.68 6 9 C8.3515625 8.69921875 8.3515625 8.69921875 10.625 8.6875 C11.38039063 8.67074219 12.13578125 8.65398437 12.9140625 8.63671875 C15.54278124 9.09452932 16.43223937 9.86804525 18 12 C18 12.99 18 13.98 18 15 C17.01 14.67 16.02 14.34 15 14 C13.50225982 13.90774789 12.00057026 13.8699981 10.5 13.875 C9.7265625 13.87242187 8.953125 13.86984375 8.15625 13.8671875 C5.81552983 13.91854187 5.81552983 13.91854187 3 15 C3 14.34 3 13.68 3 13 C2.01 12.67 1.02 12.34 0 12 C0 8.04 0 4.08 0 0 Z " fill="#8F3521" transform="translate(104,271)"/>
<path d="M0 0 C0.33 0 0.66 0 1 0 C1 3.63 1 7.26 1 11 C2.65 10.34 4.3 9.68 6 9 C8.38671875 8.734375 8.38671875 8.734375 10.6875 8.75 C11.45449219 8.74484375 12.22148437 8.7396875 13.01171875 8.734375 C15 9 15 9 17 11 C17 11.99 17 12.98 17 14 C12.71 14 8.42 14 4 14 C4 13.34 4 12.68 4 12 C2.35 12 0.7 12 -1 12 C-0.67 8.04 -0.34 4.08 0 0 Z " fill="#99482B" transform="translate(136,271)"/>
<path d="M0 0 C3.0625 2 3.0625 2 5 4 C0.77213125 5.62610337 -0.03639791 4.65453403 -5 3 C-5 15.54 -5 28.08 -5 41 C-5.33 41 -5.66 41 -6 41 C-6 28.13 -6 15.26 -6 2 C-7.98 2 -9.96 2 -12 2 C-7.98977783 -0.67348144 -4.71558394 -0.71022805 0 0 Z " fill="#D49946" transform="translate(168,209)"/>
<path d="M0 0 C4.32652162 4.32652162 5.11574869 10.05366692 5.125 15.9375 C5.09334369 17.29193765 5.05525226 18.64631959 5 20 C4.67 20 4.34 20 4 20 C3.67 18.35 3.34 16.7 3 15 C2.01 15.66 1.02 16.32 0 17 C-0.04898438 16.15695312 -0.09796875 15.31390625 -0.1484375 14.4453125 C-0.26058594 12.80175781 -0.26058594 12.80175781 -0.375 11.125 C-0.44460937 10.03445313 -0.51421875 8.94390625 -0.5859375 7.8203125 C-0.73253491 4.86953526 -0.73253491 4.86953526 -3 3 C-4.98821313 2.60235737 -6.98944339 2.26224651 -9 2 C-9 1.67 -9 1.34 -9 1 C-5.94152152 0.45627049 -3.11227195 0 0 0 Z " fill="#D59643" transform="translate(187,276)"/>
<path d="M0 0 C2.60873043 2.91018373 2.22011793 5.18596682 2.1328125 9.0234375 C2.11992187 10.27253906 2.10703125 11.52164062 2.09375 12.80859375 C1.7578125 15.9609375 1.7578125 15.9609375 -0.2421875 17.9609375 C-0.5721875 16.6409375 -0.9021875 15.3209375 -1.2421875 13.9609375 C-3.2221875 14.9509375 -3.2221875 14.9509375 -5.2421875 15.9609375 C-4.7471875 15.0946875 -4.2521875 14.2284375 -3.7421875 13.3359375 C-2.18132111 9.82398813 -1.89808038 7.74611581 -2.2421875 3.9609375 C-2.5721875 3.3009375 -2.9021875 2.6409375 -3.2421875 1.9609375 C-5.56375347 1.55364522 -7.8990662 1.21655073 -10.2421875 0.9609375 C-10.2421875 0.6309375 -10.2421875 0.3009375 -10.2421875 -0.0390625 C-2.96374627 -1.37344339 -2.96374627 -1.37344339 0 0 Z " fill="#BC7639" transform="translate(320.2421875,279.0390625)"/>
<path d="M0 0 C0.33 0 0.66 0 1 0 C1.01417969 0.75023437 1.02835937 1.50046875 1.04296875 2.2734375 C1.36456798 9.1747832 2.53912377 14.06402898 6.0390625 20.0390625 C6.35617187 20.68617188 6.67328125 21.33328125 7 22 C6.67 22.66 6.34 23.32 6 24 C5.01 23.34 4.02 22.68 3 22 C2.67 22.66 2.34 23.32 2 24 C-1.10347373 18.87926834 -1.40803792 14.98057742 -1.25 9.1875 C-1.24484375 8.41212891 -1.2396875 7.63675781 -1.234375 6.83789062 C-1.15482198 1.15482198 -1.15482198 1.15482198 0 0 Z " fill="#D0943C" transform="translate(371,209)"/>
<path d="M0 0 C0.33 0 0.66 0 1 0 C1 3.63 1 7.26 1 11 C2.65 10.34 4.3 9.68 6 9 C8.38671875 8.734375 8.38671875 8.734375 10.6875 8.75 C11.45449219 8.74484375 12.22148437 8.7396875 13.01171875 8.734375 C15 9 15 9 17 11 C17 11.99 17 12.98 17 14 C15.86111328 13.98259766 15.86111328 13.98259766 14.69921875 13.96484375 C13.70535156 13.95582031 12.71148437 13.94679688 11.6875 13.9375 C10.70136719 13.92589844 9.71523438 13.91429687 8.69921875 13.90234375 C5.90036151 13.87670138 5.90036151 13.87670138 3 15 C3 14.34 3 13.68 3 13 C2.01 12.67 1.02 12.34 0 12 C0 8.04 0 4.08 0 0 Z " fill="#903623" transform="translate(252,271)"/>
<path d="M0 0 C3.26954202 0.56371414 4.82575883 1.49962266 7 4 C7.66 2.68 8.32 1.36 9 0 C10.32 0.33 11.64 0.66 13 1 C12.360625 2.051875 11.72125 3.10375 11.0625 4.1875 C9.38245548 7.10828412 8.41003948 9.6171743 8 13 C7.01 13 6.02 13 5 13 C4.731875 12.113125 4.46375 11.22625 4.1875 10.3125 C3.0819322 7.2285477 1.69898404 4.7801557 0 2 C0 1.34 0 0.68 0 0 Z " fill="#DDA347" transform="translate(340,327)"/>
<path d="M0 0 C5.56818182 0.56818182 5.56818182 0.56818182 7 2 C7.25 4.4375 7.25 4.4375 7 7 C4 9 4 9 1.375 8.6875 C-1 8 -1 8 -2 7 C-2.1875 4.5625 -2.1875 4.5625 -2 2 C-1.34 1.34 -0.68 0.68 0 0 Z " fill="#882B1D" transform="translate(263,329)"/>
<path d="M0 0 C1.32 0 2.64 0 4 0 C4.66 1.32 5.32 2.64 6 4 C6.66 4 7.32 4 8 4 C8.33 2.68 8.66 1.36 9 0 C10.32 0 11.64 0 13 0 C11.87548273 2.9719385 10.77706209 5.33440687 9 8 C8.61500109 9.65549531 8.27206865 11.3222433 8 13 C7.01 13 6.02 13 5 13 C4.80664062 12.39671875 4.61328125 11.7934375 4.4140625 11.171875 C4.15367187 10.37265625 3.89328125 9.5734375 3.625 8.75 C3.36976563 7.96109375 3.11453125 7.1721875 2.8515625 6.359375 C2.04826333 4.13372042 1.10288338 2.09068328 0 0 Z " fill="#C8792C" transform="translate(232,327)"/>
<path d="M0 0 C2.64 0 5.28 0 8 0 C8 0.33 8 0.66 8 1 C5.69 1 3.38 1 1 1 C1 1.66 1 2.32 1 3 C3.31 3 5.62 3 8 3 C8.33 4.32 8.66 5.64 9 7 C6.36 7 3.72 7 1 7 C1 7.99 1 8.98 1 10 C1.66 10 2.32 10 3 10 C3 11.65 3 13.3 3 15 C2.01 15 1.02 15 0 15 C0 10.05 0 5.1 0 0 Z " fill="#BC6B2B" transform="translate(392,326)"/>
<path d="M0 0 C7.26 0 14.52 0 22 0 C21.01 1.485 21.01 1.485 20 3 C17.93701172 3.34057617 17.93701172 3.34057617 15.4296875 3.29296875 C14.53378906 3.28330078 13.63789063 3.27363281 12.71484375 3.26367188 C11.30912109 3.2259668 11.30912109 3.2259668 9.875 3.1875 C8.93011719 3.17396484 7.98523438 3.16042969 7.01171875 3.14648438 C4.67391221 3.11106306 2.33723763 3.06167271 0 3 C0 2.01 0 1.02 0 0 Z " fill="#DFA344" transform="translate(327,267)"/>
<path d="M0 0 C9.9 0 19.8 0 30 0 C30 1.32 30 2.64 30 4 C27.03 4 24.06 4 21 4 C21.33 3.34 21.66 2.68 22 2 C15.07 1.67 8.14 1.34 1 1 C0.67 1.99 0.34 2.98 0 4 C0 2.68 0 1.36 0 0 Z " fill="#C47933" transform="translate(326,266)"/>
<path d="M0 0 C2.62187494 1.04874998 3.79371361 1.64931313 5.25 4.125 C5.4975 4.74375 5.745 5.3625 6 6 C4.75 7.5625 4.75 7.5625 3 9 C-0.0417096 8.71483972 -1.39045802 7.73969465 -4 6 C-4 5.01 -4 4.02 -4 3 C-2 1.3125 -2 1.3125 0 0 Z " fill="#872A1C" transform="translate(397,196)"/>
<path d="M0 0 C0.99 0 1.98 0 3 0 C3 3.63 3 7.26 3 11 C5.64 11 8.28 11 11 11 C11 11.66 11 12.32 11 13 C7.37 13 3.74 13 0 13 C0 8.71 0 4.42 0 0 Z " fill="#E0B053" transform="translate(149,327)"/>
<path d="M0 0 C2.62386487 3.06117568 3 3.73173127 3 8 C5.97 8 8.94 8 12 8 C11.34 9.32 10.68 10.64 10 12 C11.32 12.33 12.64 12.66 14 13 C6.76813075 13.49029622 6.76813075 13.49029622 3.0625 11.125 C0.23043667 8.20711657 0.00932514 7.5408583 -0.0625 3.375 C-0.041875 2.26125 -0.02125 1.1475 0 0 Z " fill="#D79942" transform="translate(249,292)"/>
<path d="M0 0 C2 2 2 2 2 5 C1.25234375 4.98839844 0.5046875 4.97679687 -0.265625 4.96484375 C-1.25046875 4.95582031 -2.2353125 4.94679688 -3.25 4.9375 C-4.22453125 4.92589844 -5.1990625 4.91429687 -6.203125 4.90234375 C-8.65758678 4.98804423 -10.66168914 5.29293934 -13 6 C-10.18931094 -0.48620553 -6.39847862 -0.40625261 0 0 Z " fill="#84251B" transform="translate(378,280)"/>
<path d="M0 0 C-0.33 0.598125 -0.66 1.19625 -1 1.8125 C-2.20787988 4.05386471 -2.20787988 4.05386471 -2 7 C-2.66 7.66 -3.32 8.32 -4 9 C-4.16687448 11.58354218 -4.16687448 11.58354218 -4 14 C-4.99 14.495 -4.99 14.495 -6 15 C-6.66 14.67 -7.32 14.34 -8 14 C-8.71800554 7.05927978 -8.71800554 7.05927978 -6.734375 4.1328125 C-2.66088517 0 -2.66088517 0 0 0 Z " fill="#C7792D" transform="translate(367,286)"/>
<path d="M0 0 C0.66 0.33 1.32 0.66 2 1 C-3.34388455 7.33480354 -9.08833812 13.19539034 -15 19 C-15 15.38229607 -14.36541462 14.91551207 -12 12.3125 C-11.36964844 11.61769531 -10.73929687 10.92289063 -10.08984375 10.20703125 C-6.79848676 6.73111219 -3.42451456 3.34446097 0 0 Z " fill="#C37F34" transform="translate(397,190)"/>
<path d="M0 0 C0 0.66 0 1.32 0 2 C-1.32 2 -2.64 2 -4 2 C-4 4.97 -4 7.94 -4 11 C-2.68 11 -1.36 11 0 11 C0 11.66 0 12.32 0 13 C-2.375 13.125 -2.375 13.125 -5 13 C-7 11 -7 11 -7.1953125 8.6171875 C-7.17210937 7.71226562 -7.14890625 6.80734375 -7.125 5.875 C-7.10695313 4.96492188 -7.08890625 4.05484375 -7.0703125 3.1171875 C-7.04710937 2.41851562 -7.02390625 1.71984375 -7 1 C-4 0 -4 0 0 0 Z " fill="#E6BC5A" transform="translate(323,327)"/>
<path d="M0 0 C3.96 0 7.92 0 12 0 C12 0.66 12 1.32 12 2 C10.35 2 8.7 2 7 2 C7 5.63 7 9.26 7 13 C6.34 13 5.68 13 5 13 C5 9.37 5 5.74 5 2 C3.35 2 1.7 2 0 2 C0 1.34 0 0.68 0 0 Z " fill="#D58C31" transform="translate(87,327)"/>
<path d="M0 0 C5.61 0 11.22 0 17 0 C17 0.99 17 1.98 17 3 C14.72975032 3.08097324 12.45867925 3.13917704 10.1875 3.1875 C8.29064453 3.23970703 8.29064453 3.23970703 6.35546875 3.29296875 C3 3 3 3 0 0 Z " fill="#EFC65B" transform="translate(111,267)"/>
<path d="M0 0 C1.32 0.66 2.64 1.32 4 2 C3.34 4.31 2.68 6.62 2 9 C4.31 9 6.62 9 9 9 C7.68 10.32 6.36 11.64 5 13 C1.83884224 11.63016497 1.0072908 11.0109362 -1 8 C-1.1875 4.375 -1.1875 4.375 -1 1 C-0.67 0.67 -0.34 0.34 0 0 Z " fill="#BD6F2E" transform="translate(102,291)"/>
<path d="M0 0 C0.67224609 -0.00322266 1.34449219 -0.00644531 2.03710938 -0.00976562 C5.70708778 0.03032351 7.30992617 0.22745078 10.4375 2.3125 C4.9925 1.8175 4.9925 1.8175 -0.5625 1.3125 C-0.2325 2.6325 0.0975 3.9525 0.4375 5.3125 C-0.2225 4.9825 -0.8825 4.6525 -1.5625 4.3125 C-3.26613822 4.08627919 -4.97578701 3.90361527 -6.6875 3.75 C-7.59757813 3.66621094 -8.50765625 3.58242187 -9.4453125 3.49609375 C-10.14398438 3.43550781 -10.84265625 3.37492188 -11.5625 3.3125 C-7.94634148 -0.19267667 -4.89964441 -0.06226332 0 0 Z " fill="#D6A24E" transform="translate(251.5625,208.6875)"/>
<path d="M0 0 C5.28 0 10.56 0 16 0 C16 0.99 16 1.98 16 3 C14.08404032 3.08133791 12.16708068 3.13934367 10.25 3.1875 C8.64898437 3.23970703 8.64898437 3.23970703 7.015625 3.29296875 C4 3 4 3 0 0 Z " fill="#DB9C3E" transform="translate(81,267)"/>
<path d="M0 0 C1.02486226 2.04972452 2.03441521 4.08030215 2.9375 6.1875 C3.93434552 8.34395107 3.93434552 8.34395107 7 9 C7 9.99 7 10.98 7 12 C9.31 12 11.62 12 14 12 C14 12.33 14 12.66 14 13 C6.23214286 13.66964286 6.23214286 13.66964286 2.5625 10.9375 C-0.42973022 7.50738243 -0.91345642 5.50026603 -1 1 C-0.67 0.67 -0.34 0.34 0 0 Z " fill="#DFAD4F" transform="translate(133,292)"/>
<path d="M0 0 C0.66 0 1.32 0 2 0 C2 21 2 21 1 24 C-1.64 23.34 -4.28 22.68 -7 22 C-6.401875 21.71125 -5.80375 21.4225 -5.1875 21.125 C-2.80672208 19.95257974 -2.80672208 19.95257974 0 18 C0.41428346 16.06923522 0.41428346 16.06923522 0.29296875 13.8671875 C0.2784668 12.65869141 0.2784668 12.65869141 0.26367188 11.42578125 C0.23853516 10.58402344 0.21339844 9.74226562 0.1875 8.875 C0.17396484 8.02550781 0.16042969 7.17601562 0.14648438 6.30078125 C0.11108219 4.20025163 0.05727401 2.10004707 0 0 Z " fill="#C07E3F" transform="translate(251,229)"/>
<path d="M0 0 C5.28 0 10.56 0 16 0 C16.33 0.99 16.66 1.98 17 3 C18.98 2.34 20.96 1.68 23 1 C22.67 1.66 22.34 2.32 22 3 C22.99 3.66 23.98 4.32 25 5 C24.05125 5.309375 23.1025 5.61875 22.125 5.9375 C19.13919592 6.87394742 19.13919592 6.87394742 17 8 C15.5393715 5.35261084 15 4.10551666 15 1 C10.05 1 5.1 1 0 1 C0 0.67 0 0.34 0 0 Z " fill="#D29544" transform="translate(281,210)"/>
<path d="M0 0 C0.99 0 1.98 0 3 0 C2.125 4.875 2.125 4.875 1 6 C-4.73611111 6.27314815 -4.73611111 6.27314815 -7 6 C-7.66 5.34 -8.32 4.68 -9 4 C-9 3.01 -9 2.02 -9 1 C-8.13375 1.495 -8.13375 1.495 -7.25 2 C-4.80116138 3.27075898 -4.80116138 3.27075898 -1 3 C-0.67 2.01 -0.34 1.02 0 0 Z " fill="#E2AD4E" transform="translate(191,334)"/>
<path d="M0 0 C0.99 0 1.98 0 3 0 C3.83796731 4.65537393 4.0161692 8.37078475 3 13 C2.01 13 1.02 13 0 13 C0 8.71 0 4.42 0 0 Z " fill="#CA8032" transform="translate(104,327)"/>
<path d="M0 0 C0.66 0.33 1.32 0.66 2 1 C1.814375 2.2375 1.62875 3.475 1.4375 4.75 C1.05288777 7.76279577 0.9125406 10.10010827 2 13 C0.0625 12.625 0.0625 12.625 -2 12 C-3.52491998 8.95016004 -3.23562548 6.3576631 -3 3 C-1.5 1.0625 -1.5 1.0625 0 0 Z " fill="#CD8536" transform="translate(261,327)"/>
<path d="M0 0 C0.66 1.32 1.32 2.64 2 4 C0.906875 3.979375 -0.18625 3.95875 -1.3125 3.9375 C-4.94384191 3.81455548 -4.94384191 3.81455548 -8 5 C-8.33 6.98 -8.66 8.96 -9 11 C-9.33 11 -9.66 11 -10 11 C-10.48275862 4.72413793 -10.48275862 4.72413793 -8.375 1.5625 C-5.397402 -0.39644605 -3.49644963 -0.31785906 0 0 Z " fill="#BE712F" transform="translate(225,326)"/>
<path d="M0 0 C-0.8125 1.9375 -0.8125 1.9375 -2 4 C-2.99 4.33 -3.98 4.66 -5 5 C-5 5.99 -5 6.98 -5 8 C-4.34 8 -3.68 8 -3 8 C-3 9.65 -3 11.3 -3 13 C0.465 12.505 0.465 12.505 4 12 C3.67 12.66 3.34 13.32 3 14 C0.67843403 14.40729228 -1.6568787 14.74438677 -4 15 C-6.33573034 11.35042135 -6.45652447 8.26089509 -6 4 C-2.92307692 0 -2.92307692 0 0 0 Z " fill="#BD6B2A" transform="translate(224,276)"/>
<path d="M0 0 C1.93681161 -0.08107583 3.8745934 -0.13922475 5.8125 -0.1875 C6.89144531 -0.22230469 7.97039062 -0.25710938 9.08203125 -0.29296875 C12 0 12 0 15 3 C10.05 3 5.1 3 0 3 C0 2.01 0 1.02 0 0 Z " fill="#D9973A" transform="translate(216,267)"/>
<path d="M0 0 C7.875 0.875 7.875 0.875 9 2 C9.0979057 3.49738124 9.12974864 4.99942892 9.125 6.5 C9.12757813 7.3146875 9.13015625 8.129375 9.1328125 8.96875 C9 11 9 11 8 12 C6.33382885 12.04063832 4.66611905 12.042721 3 12 C2.67 12.99 2.34 13.98 2 15 C2.33 13.35 2.66 11.7 3 10 C4.32 10 5.64 10 7 10 C7 7.36 7 4.72 7 2 C5.02 2 3.04 2 1 2 C0.67 1.34 0.34 0.68 0 0 Z " fill="#9B4325" transform="translate(387,255)"/>
<path d="M0 0 C0.33 0 0.66 0 1 0 C1 5.28 1 10.56 1 16 C0.01 16.33 -0.98 16.66 -2 17 C-2.05418326 14.91695462 -2.09287551 12.83350232 -2.125 10.75 C-2.14820313 9.58984375 -2.17140625 8.4296875 -2.1953125 7.234375 C-2.0103949 4.17213954 -1.60823023 2.55797249 0 0 Z " fill="#EFBB66" transform="translate(437,208)"/>
<path d="M0 0 C4.29 0 8.58 0 13 0 C13 0.99 13 1.98 13 3 C9.04 3 5.08 3 1 3 C0.67 2.01 0.34 1.02 0 0 Z " fill="#F2CD61" transform="translate(263,267)"/>
<path d="M0 0 C1.32 0.33 2.64 0.66 4 1 C3.5205537 5.21912747 2.83374881 7.79663178 0 11 C-0.66 10.67 -1.32 10.34 -2 10 C-1.46274105 6.62294375 -0.88935377 3.303314 0 0 Z " fill="#DBA055" transform="translate(434,223)"/>
<path d="M0 0 C1.6875 2 1.6875 2 3 4 C2.67 4.66 2.34 5.32 2 6 C1.77532169 7.53668865 1.59203195 9.07968054 1.4375 10.625 C1.35371094 11.44226563 1.26992187 12.25953125 1.18359375 13.1015625 C1.12300781 13.72804688 1.06242188 14.35453125 1 15 C0.67 15 0.34 15 0 15 C-0.04898438 14.30132812 -0.09796875 13.60265625 -0.1484375 12.8828125 C-0.22320312 11.97273438 -0.29796875 11.06265625 -0.375 10.125 C-0.44460937 9.22007812 -0.51421875 8.31515625 -0.5859375 7.3828125 C-0.79568132 4.82058097 -0.79568132 4.82058097 -3 3 C-4.98821313 2.60235737 -6.98944339 2.26224651 -9 2 C-9 1.67 -9 1.34 -9 1 C-5.94152152 0.45627049 -3.11227195 0 0 0 Z " fill="#C07634" transform="translate(187,276)"/>
<path d="M0 0 C0.33 1.32 0.66 2.64 1 4 C2.32 3.34 3.64 2.68 5 2 C5 2.99 5 3.98 5 5 C4.34 5 3.68 5 3 5 C3 5.66 3 6.32 3 7 C2.34 7 1.68 7 1 7 C1 7.99 1 8.98 1 10 C-0.32 10 -1.64 10 -3 10 C-2.01 6.7 -1.02 3.4 0 0 Z " fill="#BF7637" transform="translate(201,330)"/>
<path d="M0 0 C2.64 0 5.28 0 8 0 C8 0.66 8 1.32 8 2 C6.35 2 4.7 2 3 2 C3 3.32 3 4.64 3 6 C3.99 6.33 4.98 6.66 6 7 C4.02 7 2.04 7 0 7 C0 4.69 0 2.38 0 0 Z " fill="#EEC960" transform="translate(301,327)"/>
<path d="M0 0 C0.66 0 1.32 0 2 0 C2.1953125 6.0546875 2.1953125 6.0546875 2 8 C1.34 8.66 0.68 9.32 0 10 C-0.33 8.68 -0.66 7.36 -1 6 C-2.98 6.99 -2.98 6.99 -5 8 C-1.125 1.125 -1.125 1.125 0 0 Z " fill="#D09447" transform="translate(320,287)"/>
<path d="M0 0 C-1.4333056 5.01656959 -3.90563952 7.01452882 -8 10 C-8.66 10 -9.32 10 -10 10 C-8.50006099 6.10015857 -4.53875449 0 0 0 Z " fill="#E7B05E" transform="translate(423,231)"/>
<path d="M0 0 C0.99 0.33 1.98 0.66 3 1 C2.34 1.66 1.68 2.32 1 3 C1.32041397 5.60280568 1.32041397 5.60280568 2 8 C5.3 8.33 8.6 8.66 12 9 C12 9.33 12 9.66 12 10 C10.22992286 10.08114106 8.45877902 10.13925505 6.6875 10.1875 C5.70136719 10.22230469 4.71523437 10.25710937 3.69921875 10.29296875 C1 10 1 10 -0.8359375 8.6484375 C-2.46984593 6.33464771 -2.35458018 4.76572542 -2 2 C-1.34 1.34 -0.68 0.68 0 0 Z " fill="#C77F37" transform="translate(203,197)"/>
<path d="M0 0 C1.46726798 3.81489674 0.43336419 6.29011622 -1 10 C-1.66 9.34 -2.32 8.68 -3 8 C-3.66 8.66 -4.32 9.32 -5 10 C-4.56802365 5.2482602 -3.67230705 3.07999946 0 0 Z " fill="#C98A36" transform="translate(364,197)"/>
<path d="M0 0 C-0.33 0.598125 -0.66 1.19625 -1 1.8125 C-2.20787988 4.05386471 -2.20787988 4.05386471 -2 7 C-4 8.6875 -4 8.6875 -6 10 C-6.33663062 6.29706315 -6.47736015 4.60465619 -4.125 1.625 C-2 0 -2 0 0 0 Z " fill="#E5B455" transform="translate(140,286)"/>
<path d="M0 0 C0.99 0.33 1.98 0.66 3 1 C1 3 -1 5 -3 7 C-3.07148199 8.35243917 -3.08399454 9.70834367 -3.0625 11.0625 C-3.041875 12.361875 -3.02125 13.66125 -3 15 C-3.66 15 -4.32 15 -5 15 C-5.76681614 6.22421525 -5.76681614 6.22421525 -3.88671875 3.22265625 C-2.5 1.875 -2.5 1.875 0 0 Z " fill="#933B23" transform="translate(405,204)"/>
<path d="M0 0 C0.33 0 0.66 0 1 0 C1 4.29 1 8.58 1 13 C0.01 13 -0.98 13 -2 13 C-2.19294408 8.17639811 -1.75747614 4.50353262 0 0 Z " fill="#CB8337" transform="translate(116,327)"/>
<path d="M0 0 C3.0625 2 3.0625 2 5 4 C1.33610983 5.35699636 -0.51604113 4.56778149 -4 3 C-5.32594105 2.63837971 -6.65938457 2.30271961 -8 2 C-9.33333333 1.66666667 -10.66666667 1.33333333 -12 1 C-7.9554234 -0.3481922 -4.22907135 -0.57029509 0 0 Z " fill="#CB8136" transform="translate(168,209)"/>
<path d="M0 0 C0.99 0 1.98 0 3 0 C3 2.97 3 5.94 3 9 C2.01 9 1.02 9 0 9 C0 6.03 0 3.06 0 0 Z " fill="#943F28" transform="translate(319,329)"/>
<path d="M0 0 C2.97 0 5.94 0 9 0 C9 0.99 9 1.98 9 3 C6.03 3 3.06 3 0 3 C0 2.01 0 1.02 0 0 Z " fill="#E0AD4F" transform="translate(279,332)"/>
<path d="M0 0 C1.91015625 0.23046875 1.91015625 0.23046875 3.91015625 2.23046875 C3.53515625 4.85546875 3.53515625 4.85546875 2.91015625 7.23046875 C2.58015625 7.23046875 2.25015625 7.23046875 1.91015625 7.23046875 C1.91015625 5.58046875 1.91015625 3.93046875 1.91015625 2.23046875 C-0.39984375 2.89046875 -2.70984375 3.55046875 -5.08984375 4.23046875 C-5.08984375 3.57046875 -5.08984375 2.91046875 -5.08984375 2.23046875 C-5.74984375 1.90046875 -6.40984375 1.57046875 -7.08984375 1.23046875 C-5.19495423 -0.66442077 -2.51845229 0.05027763 0 0 Z " fill="#BC6D2C" transform="translate(346.08984375,274.76953125)"/>
<path d="M0 0 C3.63 0 7.26 0 11 0 C11 0.99 11 1.98 11 3 C7.37 3 3.74 3 0 3 C0 2.01 0 1.02 0 0 Z " fill="#CD7F2D" transform="translate(410,337)"/>
<path d="M0 0 C2.62386487 3.06117568 3 3.73173127 3 8 C5.31 8 7.62 8 10 8 C10 8.33 10 8.66 10 9 C7.36 9.33 4.72 9.66 2 10 C-0.4294516 6.3558226 -0.16179575 4.28758728 0 0 Z " fill="#B96B30" transform="translate(249,292)"/>
<path d="M0 0 C0.66 0.33 1.32 0.66 2 1 C-1.3 4.3 -4.6 7.6 -8 11 C-8 8 -8 8 -5.6875 5.5 C-4.800625 4.675 -3.91375 3.85 -3 3 C-2.401875 2.401875 -1.80375 1.80375 -1.1875 1.1875 C-0.795625 0.795625 -0.40375 0.40375 0 0 Z " fill="#93371E" transform="translate(83,280)"/>
<path d="M0 0 C1.65 0 3.3 0 5 0 C5.33 1.32 5.66 2.64 6 4 C4.02 4 2.04 4 0 4 C0 2.68 0 1.36 0 0 Z " fill="#86261B" transform="translate(395,329)"/>
<path d="M0 0 C1.5 1.25 1.5 1.25 3 3 C3 4.32 3 5.64 3 7 C1.68 6.67 0.36 6.34 -1 6 C-1.33 4.35 -1.66 2.7 -2 1 C-1.34 0.67 -0.68 0.34 0 0 Z " fill="#CC883B" transform="translate(208,333)"/>
<path d="M0 0 C0.33 0.99 0.66 1.98 1 3 C1.66 2.67 2.32 2.34 3 2 C2.67 3.65 2.34 5.3 2 7 C1.34 7 0.68 7 0 7 C-0.33 7.66 -0.66 8.32 -1 9 C-1.33 8.67 -1.66 8.34 -2 8 C-1.28 1.28 -1.28 1.28 0 0 Z " fill="#C5843F" transform="translate(182,328)"/>
<path d="M0 0 C6.4 -0.36923077 6.4 -0.36923077 9.4375 1.5 C9.953125 1.995 10.46875 2.49 11 3 C3.49230769 3.36923077 3.49230769 3.36923077 1 1.5 C0.67 1.005 0.34 0.51 0 0 Z " fill="#EABC56" transform="translate(111,267)"/>
<path d="M0 0 C3.125 -0.1875 3.125 -0.1875 6 0 C6 0.99 6 1.98 6 3 C3.36 3 0.72 3 -2 3 C-1.34 2.01 -0.68 1.02 0 0 Z " fill="#D58E33" transform="translate(349,267)"/>
<path d="M0 0 C1.2065625 0.0309375 1.2065625 0.0309375 2.4375 0.0625 C2.4375 1.0525 2.4375 2.0425 2.4375 3.0625 C-0.8625 3.0625 -4.1625 3.0625 -7.5625 3.0625 C-6.2425 2.4025 -4.9225 1.7425 -3.5625 1.0625 C-2.5625 0.0625 -2.5625 0.0625 0 0 Z " fill="#F1C95F" transform="translate(156.5625,266.9375)"/>
<path d="M0 0 C-1.49097658 3.7952131 -3.75700849 5.61042731 -7 8 C-7 5 -7 5 -4.625 2.3125 C-2 0 -2 0 0 0 Z " fill="#D29043" transform="translate(156,211)"/>
<path d="M0 0 C4.875 4.75 4.875 4.75 6 7 C2.20411134 6.45773019 0.52788007 4.79872437 -2 2 C-1.34 2 -0.68 2 0 2 C0 1.34 0 0.68 0 0 Z " fill="#D4A44A" transform="translate(288,298)"/>
<path d="M0 0 C1.32 0.66 2.64 1.32 4 2 C3.01 3.98 2.02 5.96 1 8 C0.34 8 -0.32 8 -1 8 C-1.04241723 5.66705225 -1.04092937 3.33297433 -1 1 C-0.67 0.67 -0.34 0.34 0 0 Z " fill="#C98033" transform="translate(102,291)"/>
<path d="M0 0 C0.66 0.33 1.32 0.66 2 1 C2 3.31 2 5.62 2 8 C1.01 8.495 1.01 8.495 0 9 C-0.66 8.34 -1.32 7.68 -2 7 C-1.34 4.69 -0.68 2.38 0 0 Z " fill="#B3612A" transform="translate(242,290)"/>
<path d="M0 0 C0.66 0.33 1.32 0.66 2 1 C2 2.32 2 3.64 2 5 C-0.31 5 -2.62 5 -5 5 C-5 4.34 -5 3.68 -5 3 C-3.35 3 -1.7 3 0 3 C0 2.01 0 1.02 0 0 Z " fill="#ECC45F" transform="translate(307,335)"/>
<path d="M0 0 C1.41377341 2.63904371 2.37240135 5.07120629 3 8 C2.01 8 1.02 8 0 8 C-0.38063221 5.6739143 -0.71269945 3.33944736 -1 1 C-0.67 0.67 -0.34 0.34 0 0 Z " fill="#CC8D41" transform="translate(133,292)"/>
<path d="M0 0 C-1.45255699 3.82946843 -3.42895561 5.12050295 -7 7 C-3.86206897 0 -3.86206897 0 0 0 Z " fill="#974026" transform="translate(179,278)"/>
<path d="M0 0 C0.66 1.32 1.32 2.64 2 4 C-0.25 5.125 -0.25 5.125 -3 6 C-5.3125 5.125 -5.3125 5.125 -7 4 C-6.030625 3.525625 -5.06125 3.05125 -4.0625 2.5625 C-1.19522563 1.29806053 -1.19522563 1.29806053 0 0 Z " fill="#D18D3C" transform="translate(171,247)"/>
<path d="M0 0 C1.98 0 3.96 0 6 0 C6.33 0.99 6.66 1.98 7 3 C4.36 2.67 1.72 2.34 -1 2 C-0.67 1.34 -0.34 0.68 0 0 Z " fill="#D68F33" transform="translate(220,327)"/>
<path d="M0 0 C2.15377564 2.62198774 3.40072174 4.64404172 4 8 C3.01 8.495 3.01 8.495 2 9 C1.34 8.67 0.68 8.34 0 8 C0 5.36 0 2.72 0 0 Z " fill="#AC5423" transform="translate(359,292)"/>
<path d="M0 0 C0.66 0.33 1.32 0.66 2 1 C-1.465 3.97 -1.465 3.97 -5 7 C-5 6.01 -5 5.02 -5 4 C-2.5 1.8125 -2.5 1.8125 0 0 Z " fill="#D18E42" transform="translate(234,226)"/>
</svg>
